<?xml version="1.0" encoding="utf-8"?>
<!-- Generator: Adobe Illustrator 23.1.1, SVG Export Plug-In . SVG Version: 6.00 Build 0)  -->
<svg version="1.1" id="Layer_2" xmlns="http://www.w3.org/2000/svg" xmlns:xlink="http://www.w3.org/1999/xlink" x="0px" y="0px"
	 viewBox="0 0 339.8 47.32" style="enable-background:new 0 0 339.8 47.32;" xml:space="preserve">
<style type="text/css">
	.st0{fill:#005596;}
</style>
<rect class="st0" width="2.73" height="47.21"/>
<g>
	<path d="M100.24,19.16c-0.65-3.29-3.29-4.95-6.51-4.95c-5.53,0-7.88,4.56-7.88,9.41c0,5.31,2.34,9.74,7.91,9.74
		c4.07,0,6.41-2.87,6.71-6.71h3.09c-0.59,5.79-4.2,9.31-10.06,9.31c-7.23,0-10.74-5.34-10.74-12.11c0-6.74,3.84-12.24,11-12.24
		c4.85,0,8.85,2.6,9.57,7.55H100.24z"/>
	<path d="M113.49,18.19c5.34,0,8.17,3.87,8.17,8.82c0,4.91-2.83,8.79-8.17,8.79c-5.34,0-8.17-3.87-8.17-8.79
		C105.32,22.06,108.16,18.19,113.49,18.19z M113.49,33.36c2.9,0,5.24-2.28,5.24-6.35c0-4.1-2.34-6.38-5.24-6.38
		c-2.9,0-5.24,2.28-5.24,6.38C108.25,31.08,110.6,33.36,113.49,33.36z"/>
	<path d="M124.15,18.58h2.6v2.47h0.06c1.24-1.89,3.12-2.86,5.44-2.86c2.05,0,3.94,0.81,4.62,2.86c1.14-1.79,3.12-2.86,5.27-2.86
		c3.35,0,5.6,1.4,5.6,4.88v12.34h-2.77V24.37c0-2.08-0.55-3.74-3.26-3.74c-2.67,0-4.39,1.69-4.39,4.3v10.48h-2.77V24.37
		c0-2.18-0.68-3.74-3.16-3.74c-3.29,0-4.49,3.03-4.49,4.3v10.48h-2.77V18.58z"/>
	<path d="M151.19,18.58h2.77v2.28h0.06c0.91-1.85,3.06-2.67,5.37-2.67c5.18,0,7.75,4.1,7.75,8.85c0,4.75-2.54,8.76-7.68,8.76
		c-1.73,0-4.2-0.65-5.44-2.64h-0.06v8.69h-2.77V18.58z M159,20.63c-3.71,0-5.14,3.19-5.14,6.35c0,3.32,1.5,6.38,5.31,6.38
		c3.78,0,5.04-3.23,5.04-6.51C164.21,23.69,162.58,20.63,159,20.63z"/>
	<path d="M184.47,35.34c-0.49,0.29-1.11,0.45-1.99,0.45c-1.43,0-2.34-0.78-2.34-2.6c-1.53,1.79-3.58,2.6-5.93,2.6
		c-3.06,0-5.57-1.37-5.57-4.72c0-3.81,2.83-4.62,5.7-5.18c3.06-0.59,5.66-0.39,5.66-2.47c0-2.41-1.99-2.8-3.74-2.8
		c-2.34,0-4.07,0.72-4.2,3.19h-2.77c0.16-4.17,3.39-5.63,7.13-5.63c3.03,0,6.32,0.68,6.32,4.62v8.66c0,1.3,0,1.89,0.88,1.89
		c0.23,0,0.49-0.03,0.85-0.17V35.34z M179.98,26.71c-1.07,0.78-3.16,0.81-5.01,1.14c-1.82,0.33-3.38,0.98-3.38,3.03
		c0,1.82,1.56,2.48,3.25,2.48c3.65,0,5.14-2.28,5.14-3.81V26.71z"/>
	<path d="M186.39,18.58h2.6v2.67h0.07c1.17-2.08,3.06-3.06,5.47-3.06c4.43,0,5.79,2.54,5.79,6.15v11.07h-2.77V24.01
		c0-2.05-1.3-3.38-3.42-3.38c-3.35,0-4.98,2.25-4.98,5.27v9.51h-2.77V18.58z"/>
	<path d="M206.51,15.55h-2.77v-3.39h2.77V15.55z M203.74,18.58h2.77v16.83h-2.77V18.58z"/>
	<path d="M224.33,30.07c-0.75,3.71-3.42,5.73-7.19,5.73c-5.37,0-7.91-3.71-8.07-8.85c0-5.05,3.32-8.76,7.91-8.76
		c5.96,0,7.78,5.57,7.62,9.64h-12.6c-0.1,2.93,1.56,5.54,5.24,5.54c2.28,0,3.87-1.11,4.36-3.29H224.33z M221.66,25.38
		c-0.13-2.64-2.12-4.75-4.85-4.75c-2.9,0-4.62,2.18-4.82,4.75H221.66z"/>
	<path d="M228.63,30.1c0.1,2.47,2.25,3.26,4.52,3.26c1.73,0,4.07-0.39,4.07-2.51c0-2.15-2.74-2.51-5.5-3.12
		c-2.73-0.62-5.5-1.53-5.5-4.75c0-3.38,3.35-4.78,6.28-4.78c3.71,0,6.67,1.17,6.9,5.27h-2.77c-0.2-2.15-2.08-2.83-3.91-2.83
		c-1.66,0-3.58,0.46-3.58,2.15c0,1.99,2.93,2.31,5.5,2.93c2.77,0.62,5.5,1.53,5.5,4.79c0,4-3.74,5.31-7.16,5.31
		c-3.78,0-6.97-1.53-7.13-5.69H228.63z"/>
	<path d="M252.06,12.16h3.09v9.99h12.24v-9.99h3.09v23.24h-3.09V24.76h-12.24v10.65h-3.09V12.16z"/>
	<path d="M281.6,18.19c5.34,0,8.17,3.87,8.17,8.82c0,4.91-2.83,8.79-8.17,8.79c-5.34,0-8.17-3.87-8.17-8.79
		C273.43,22.06,276.26,18.19,281.6,18.19z M281.6,33.36c2.9,0,5.24-2.28,5.24-6.35c0-4.1-2.34-6.38-5.24-6.38
		c-2.9,0-5.24,2.28-5.24,6.38C276.36,31.08,278.71,33.36,281.6,33.36z"/>
	<path d="M306.14,35.41h-2.6v-2.67h-0.07c-1.17,2.08-3.06,3.06-5.47,3.06c-4.43,0-5.79-2.54-5.79-6.15V18.58h2.77v11.39
		c0,2.05,1.3,3.39,3.42,3.39c3.35,0,4.98-2.25,4.98-5.28v-9.5h2.77V35.41z"/>
	<path d="M311.32,30.1c0.1,2.47,2.25,3.26,4.52,3.26c1.72,0,4.07-0.39,4.07-2.51c0-2.15-2.73-2.51-5.5-3.12
		c-2.73-0.62-5.5-1.53-5.5-4.75c0-3.38,3.35-4.78,6.28-4.78c3.71,0,6.67,1.17,6.9,5.27h-2.77c-0.2-2.15-2.08-2.83-3.91-2.83
		c-1.66,0-3.58,0.46-3.58,2.15c0,1.99,2.93,2.31,5.5,2.93c2.77,0.62,5.5,1.53,5.5,4.79c0,4-3.74,5.31-7.16,5.31
		c-3.78,0-6.97-1.53-7.13-5.69H311.32z"/>
	<path d="M339.53,30.07c-0.75,3.71-3.42,5.73-7.19,5.73c-5.37,0-7.91-3.71-8.07-8.85c0-5.05,3.32-8.76,7.91-8.76
		c5.96,0,7.78,5.57,7.62,9.64h-12.6c-0.1,2.93,1.56,5.54,5.24,5.54c2.28,0,3.87-1.11,4.36-3.29H339.53z M336.86,25.38
		c-0.13-2.64-2.12-4.75-4.85-4.75c-2.9,0-4.62,2.18-4.82,4.75H336.86z"/>
</g>
<g>
	<path d="M38.05,8.23c-0.27,0.51-0.49,0.8-0.46,1.19c0.04,0.39,0.45,0.67,0.64,1.06c0.18-0.46,0.47-0.8,0.44-1.16
		C38.63,8.96,38.14,8.49,38.05,8.23"/>
	<path d="M44.86,8.23c0.27,0.51,0.49,0.8,0.46,1.19c-0.04,0.39-0.45,0.67-0.64,1.06c-0.18-0.46-0.47-0.8-0.44-1.16
		C44.27,8.96,44.77,8.49,44.86,8.23"/>
	<path d="M34.14,7.93c0.25,0,0.46-0.21,0.46-0.46c0-0.25-0.21-0.46-0.46-0.46c-0.25,0-0.46,0.21-0.46,0.46
		C33.68,7.73,33.88,7.93,34.14,7.93"/>
	<path d="M34.44,8.59c0-0.25-0.21-0.46-0.46-0.46c-0.25,0-0.46,0.21-0.46,0.46c0,0.25,0.21,0.46,0.46,0.46
		C34.24,9.05,34.44,8.84,34.44,8.59"/>
	<path d="M34.67,9.7c0-0.25-0.21-0.46-0.46-0.46c-0.25,0-0.46,0.21-0.46,0.46c0,0.26,0.21,0.46,0.46,0.46
		C34.46,10.16,34.67,9.96,34.67,9.7"/>
	<path d="M36.68,5.74c0.25,0,0.46-0.21,0.46-0.46c0-0.25-0.21-0.46-0.46-0.46c-0.25,0-0.46,0.21-0.46,0.46
		C36.22,5.54,36.43,5.74,36.68,5.74"/>
	<path d="M35.54,6.09c0.25,0,0.46-0.21,0.46-0.46c0-0.25-0.21-0.46-0.46-0.46c-0.26,0-0.46,0.21-0.46,0.46
		C35.08,5.89,35.28,6.09,35.54,6.09"/>
	<path d="M34.64,6.88c0.25,0,0.46-0.21,0.46-0.46c0-0.26-0.2-0.46-0.46-0.46c-0.25,0-0.46,0.2-0.46,0.46
		C34.18,6.68,34.38,6.88,34.64,6.88"/>
	<path d="M37.88,5.85c0.25,0,0.46-0.2,0.46-0.46c0-0.25-0.2-0.46-0.46-0.46c-0.25,0-0.46,0.2-0.46,0.46
		C37.42,5.65,37.63,5.85,37.88,5.85"/>
	<path d="M39.02,6.18c0.25,0,0.46-0.21,0.46-0.46c0-0.25-0.21-0.46-0.46-0.46c-0.26,0-0.46,0.21-0.46,0.46
		C38.56,5.97,38.77,6.18,39.02,6.18"/>
	<path d="M40.09,6.69c0.25,0,0.46-0.21,0.46-0.46c0-0.25-0.21-0.46-0.46-0.46c-0.25,0-0.46,0.21-0.46,0.46
		C39.63,6.48,39.84,6.69,40.09,6.69"/>
	<path d="M48.3,7.47c0,0.25,0.21,0.46,0.46,0.46c0.25,0,0.46-0.21,0.46-0.46c0-0.25-0.21-0.46-0.46-0.46
		C48.5,7.01,48.3,7.22,48.3,7.47"/>
	<path d="M48.91,8.13c-0.25,0-0.46,0.21-0.46,0.46c0,0.25,0.21,0.46,0.46,0.46c0.26,0,0.46-0.21,0.46-0.46
		C49.37,8.34,49.16,8.13,48.91,8.13"/>
	<path d="M48.69,9.24c-0.25,0-0.46,0.21-0.46,0.46c0,0.25,0.21,0.46,0.46,0.46c0.25,0,0.46-0.2,0.46-0.46
		C49.15,9.45,48.94,9.24,48.69,9.24"/>
	<path d="M46.21,5.74c0.25,0,0.46-0.21,0.46-0.46c0-0.25-0.21-0.46-0.46-0.46c-0.25,0-0.46,0.21-0.46,0.46
		C45.75,5.54,45.96,5.74,46.21,5.74"/>
	<path d="M47.36,6.09c0.25,0,0.46-0.21,0.46-0.46c0-0.25-0.21-0.46-0.46-0.46c-0.25,0-0.46,0.21-0.46,0.46
		C46.9,5.89,47.1,6.09,47.36,6.09"/>
	<path d="M48.25,6.88c0.25,0,0.46-0.21,0.46-0.46c0-0.26-0.21-0.46-0.46-0.46c-0.25,0-0.46,0.2-0.46,0.46
		C47.79,6.68,48,6.88,48.25,6.88"/>
	<path d="M45.01,5.85c0.25,0,0.46-0.2,0.46-0.46c0-0.25-0.2-0.46-0.46-0.46c-0.25,0-0.46,0.2-0.46,0.46
		C44.55,5.65,44.76,5.85,45.01,5.85"/>
	<path d="M43.87,6.18c0.26,0,0.46-0.21,0.46-0.46c0-0.25-0.21-0.46-0.46-0.46c-0.25,0-0.46,0.21-0.46,0.46
		C43.41,5.97,43.62,6.18,43.87,6.18"/>
	<path d="M42.34,6.22c0,0.26,0.2,0.46,0.46,0.46c0.25,0,0.46-0.21,0.46-0.46c0-0.25-0.21-0.46-0.46-0.46
		C42.54,5.76,42.34,5.97,42.34,6.22"/>
	<path d="M40.66,8.71h0.51V6.74c-0.18-0.03-0.35-0.08-0.51-0.16V8.71z"/>
	<path d="M42.23,6.58c-0.16,0.08-0.33,0.13-0.52,0.16v1.97h0.52V6.58z"/>
	<path d="M41.15,4.41V3.24c-0.58,0.12-1.03,0.58-1.13,1.17H41.15z"/>
	<path d="M41.75,4.41h1.12c-0.1-0.58-0.55-1.05-1.12-1.17V4.41z"/>
	<path d="M40.04,4.97c0.15,0.65,0.72,1.13,1.41,1.13c0.69,0,1.27-0.48,1.41-1.13H40.04z"/>
	<path d="M42.24,3.06c-0.33-0.26-0.58-0.63-0.63-1.02c0.38,0.07,0.79,0.34,1.04,0.66V1.12c-0.25,0.33-0.67,0.6-1.04,0.66
		c0.04-0.38,0.28-0.73,0.6-1.13h-1.53c0.32,0.4,0.56,0.75,0.6,1.13c-0.37-0.06-0.8-0.34-1.04-0.66V2.7c0.25-0.32,0.67-0.6,1.04-0.66
		c-0.05,0.39-0.3,0.76-0.63,1.02H42.24z"/>
	<path d="M42.28,36.06c-0.31,0-0.56-0.26-0.56-0.57c0-0.31,0.25-0.57,0.56-0.57c0.31,0,0.57,0.25,0.57,0.57
		C42.84,35.8,42.59,36.06,42.28,36.06 M39.57,35.22c-0.34,0-0.62-0.28-0.62-0.62c0-0.34,0.28-0.62,0.62-0.62
		c0.34,0,0.62,0.28,0.62,0.62C40.19,34.94,39.91,35.22,39.57,35.22 M38.63,32.47l-0.15-0.12c-0.28-0.21-0.52-0.21-0.77,0.01
		c-0.12,0.1-0.23,0.23-0.33,0.35l-0.16,0.18l0.11,0.08c0.3,0.24,0.34,0.5,0.26,0.65c-0.03,0.06-0.08,0.1-0.15,0.12
		c-0.15,0.04-0.35-0.01-0.57-0.14l-0.11-0.07l-0.07,0.11c-0.02,0.03-0.03,0.05-0.05,0.08c-0.03,0.04-0.05,0.07-0.08,0.12
		c-0.13,0.22-0.19,0.39-0.19,0.53c0,0.04,0.01,0.08,0.02,0.11c0.04,0.16,0.18,0.24,0.29,0.3l0.07,0.04c0.13,0.09,0.32,0.2,0.46,0.27
		c-0.26,0.15-0.53,0.16-0.79,0.03c-0.4-0.19-0.65-0.65-0.65-0.87c0-0.34,0.15-0.78,0.44-1.22l0.04-0.07l-0.04-0.07
		c-0.09-0.14-0.15-0.27-0.2-0.4c0.15,0.02,0.3,0.05,0.45,0.08l0.07,0.02l0.05-0.05c0.17-0.19,0.78-0.8,1.35-0.8
		c0.26,0,0.52,0.13,0.71,0.36c0.15,0.17,0.24,0.36,0.26,0.55C38.81,32.6,38.72,32.54,38.63,32.47 M43.93,34.64
		c-1.45-0.36-3.17-0.98-4.78-1.71l0-0.02c0.05-0.33-0.08-0.69-0.33-0.98c-0.25-0.29-0.58-0.45-0.91-0.45c-0.15,0-0.3,0.03-0.44,0.08
		c-0.23-0.21-0.45-0.44-0.67-0.68c-0.61-0.71-1.09-1.54-1.42-2.47c-0.19-0.53-0.33-1.08-0.42-1.64c-0.08,0.47-0.61,1.09-1.51,1.1
		c0.01-0.1,0-0.33-0.08-0.36c-0.24,0.26-0.6,0.55-1.42,0.26c0.13,0.64,0.3,1.27,0.53,1.88c0.49,1.31,1.19,2.48,2.08,3.49
		c0.29,0.33,0.6,0.64,0.93,0.93c-0.01,0.06-0.01,0.12-0.01,0.19c0,0.34,0.33,0.88,0.8,1.11c0.39,0.19,0.8,0.14,1.18-0.13
		c0.7,0.37,1.6,0.73,2.56,0.99c1.08,0.3,2.13,0.47,2.95,0.47c0.71,0,1.64-0.34,2.56-0.91c0.37-0.23,0.71-0.49,0.97-0.73
		c0.04-0.03,0.07-0.06,0.1-0.09C45.89,35.06,44.81,34.86,43.93,34.64"/>
	<path d="M43.52,40.51c-0.1-0.2-0.26-0.31-0.39-0.31c-0.59,0-0.36,1.56-1.06,1.56c-0.31,0-0.47-0.2-0.47-0.42
		c0-0.22,0.15-0.28,0.15-0.46c0-0.18-0.14-0.24-0.29-0.24c-0.15,0-0.29,0.06-0.29,0.24c0,0.18,0.15,0.24,0.15,0.46
		c0,0.22-0.17,0.42-0.47,0.42c-0.7,0-0.47-1.56-1.06-1.56c-0.13,0-0.29,0.11-0.39,0.31c-0.12-0.22-0.19-0.44-0.19-0.61
		c0-0.28,0.22-0.68,0.68-0.68c0.79,0,0.61,1.08,0.98,1.08c0.17,0,0.29-0.1,0.29-0.26c0-0.31-0.55-0.6-0.55-1.04
		c0-0.44,0.4-0.81,0.84-1.16c0.44,0.35,0.84,0.72,0.84,1.16c0,0.44-0.55,0.73-0.55,1.04c0,0.16,0.12,0.26,0.29,0.26
		c0.38,0,0.19-1.08,0.98-1.08c0.46,0,0.68,0.39,0.68,0.68C43.71,40.07,43.64,40.29,43.52,40.51 M41.46,42.69
		c-0.21,0-0.38-0.17-0.38-0.38c0-0.21,0.17-0.38,0.38-0.38s0.39,0.17,0.39,0.38C41.85,42.52,41.67,42.69,41.46,42.69 M43.03,38.92
		c-0.11,0-0.2,0.02-0.29,0.04v-1.73c-0.76-0.03-1.65-0.15-2.53-0.38v2.12c-0.1-0.03-0.2-0.05-0.31-0.05c-0.61,0-0.98,0.51-0.98,0.98
		c0,0.45,0.26,0.86,0.49,1.12c0.11-0.27,0.22-0.49,0.37-0.49c0.3,0,0.16,1.5,1.05,1.54c-0.03,0.07-0.04,0.15-0.04,0.24
		c0,0.38,0.31,0.69,0.69,0.69c0.38,0,0.69-0.31,0.69-0.69c0-0.09-0.01-0.17-0.04-0.24c0.88-0.04,0.73-1.54,1.04-1.54
		c0.15,0,0.24,0.21,0.38,0.49c0.23-0.26,0.49-0.67,0.49-1.12C44.01,39.43,43.64,38.92,43.03,38.92"/>
	<path d="M63.36,41c-0.03-0.09-0.13-0.14-0.22-0.11c-2.03,0.59-4.54-1.09-6.98-2.71c-2.05-1.36-3.98-2.65-5.64-2.65
		c-0.61,0-1.16,0.13-1.63,0.38c-0.58,0.32-1.01,0.82-1.29,1.5c-0.28,0.68-0.57,1.14-0.81,1.51c-0.28,0.45-0.49,0.76-0.49,1.17
		c0,0.33,0.14,0.62,0.42,0.9c0.24,0.24,0.57,0.47,1.06,0.73c0.11,0.05,0.21,0.1,0.31,0.15c0.4,0.2,0.65,0.33,0.7,0.56
		c-0.8,0.35-1.84,0.65-3.02,0.85c-1.33,0.23-2.79,0.35-4.33,0.35c-1.54,0-3-0.12-4.33-0.35c-1.18-0.21-2.22-0.5-3.02-0.86
		c0.03-0.34,0.28-0.47,0.72-0.68c0.1-0.05,0.21-0.1,0.31-0.15c0.4-0.21,0.78-0.42,1.04-0.65c0.28-0.25,0.42-0.52,0.42-0.85
		c0-0.4-0.2-0.72-0.48-1.17c-0.24-0.37-0.53-0.84-0.81-1.51c-0.28-0.67-0.71-1.18-1.29-1.49c-0.47-0.25-1.01-0.39-1.62-0.39
		c-1.66,0-3.59,1.29-5.64,2.65c-2.43,1.62-4.95,3.3-6.98,2.71c-0.09-0.03-0.19,0.02-0.23,0.11c-0.03,0.09,0.01,0.19,0.1,0.23
		c0.62,0.27,1.16,0.7,1.69,1.11c0.73,0.57,1.42,1.11,2.18,1.11c0.72,0,1.49-0.23,2.43-0.72c0.82-0.43,1.66-1,2.48-1.56
		c1.6-1.09,3.26-2.22,4.83-2.35c-0.16,0.17-0.33,0.31-0.47,0.45c-0.46,0.41-0.86,0.77-0.86,1.5c0,0.57,0.2,0.98,0.47,1.55
		c0.08,0.16,0.17,0.35,0.26,0.56c0.18,0.39,0.25,0.7,0.35,1.13c0.05,0.19,0.1,0.39,0.16,0.64c0.1,0.37,0.29,1.07,1.44,1.66
		c1.34,0.68,3.64,1.02,6.84,1.02c3.2,0,5.51-0.34,6.84-1.02c1.15-0.59,1.34-1.28,1.44-1.66c0.07-0.25,0.12-0.45,0.16-0.64
		c0.1-0.43,0.18-0.74,0.35-1.13c0.13-0.28,0.25-0.52,0.36-0.72c0.24-0.45,0.43-0.81,0.43-1.33c0-0.73-0.42-1.11-0.91-1.54
		c-0.16-0.14-0.32-0.29-0.49-0.46c1.57,0.13,3.23,1.25,4.83,2.35c0.82,0.56,1.67,1.14,2.48,1.56c0.94,0.49,1.72,0.72,2.44,0.72
		c0.76,0,1.45-0.54,2.18-1.11c0.52-0.41,1.07-0.83,1.68-1.11C63.35,41.19,63.39,41.09,63.36,41"/>
	<path d="M41.73,25.25v-7.61c0.79,0.04,1.56,0.23,2.29,0.59c0.79,0.39,1.49,0.95,2.1,1.66c0.61,0.71,1.09,1.55,1.42,2.47
		c0.33,0.92,0.5,1.89,0.52,2.89H41.73z M41.46,14.47c-2.16,0-3.64,0.64-4.51,1.21c-0.5-0.3-0.72-0.59-0.72-0.93
		c0-1.23,3.46-1.34,5.22-1.34h0h0c1.76,0,5.23,0.11,5.23,1.34c0,0.34-0.22,0.63-0.72,0.93C45.1,15.11,43.62,14.47,41.46,14.47
		 M41.35,25.25h-6.48c0.02-1,0.19-1.97,0.52-2.89c0.33-0.92,0.81-1.75,1.42-2.47c0.61-0.71,1.31-1.27,2.1-1.66
		c0.78-0.38,1.6-0.58,2.44-0.6V25.25z M51.18,24.77c-0.22-0.17-0.59-0.51-0.78-0.91c-0.24-0.5-1.25-2.48-1.4-2.74
		c-0.13-0.22-0.2-0.42-0.2-0.59c0-0.21,0.1-0.38,0.21-0.52c0.08-0.1,0.3-0.31,0.38-0.44c0.06-0.1,0.12-0.17,0.18-0.23
		c-0.37-0.63-0.74-1.11-1.22-1.65c-0.59-0.66-1.25-1.23-1.97-1.7c0.39-0.25,0.78-0.61,0.78-1.22c0-0.35-0.15-0.63-0.4-0.86
		c0.4-1.3,1.13-2.86,1.75-3.55l-1.3-0.55c0.34,0.52,0.36,1.12,0.29,1.47c-0.34-0.24-0.63-0.56-0.73-0.99
		c-0.07,0.4-0.28,1.03-0.48,1.42c0.38-0.18,0.68-0.26,1.06-0.1c-0.22,0.3-0.78,0.75-1.64,0.55c-0.46-0.11-0.92-0.36-0.9-0.72
		c0.01-0.21,0.17-0.47,0.46-0.44c0.28,0.03,0.3,0.46,0.21,0.65c0.37-0.21,0.76-1.3,0.18-1.46c-0.46-0.13-0.88,0.5-1.03,0.98
		c-0.09-0.58-0.33-1.14-0.79-1.11c-0.6,0.04-0.4,1.15-0.19,1.43c0.04-0.39,0.25-0.6,0.43-0.58c0.16,0.01,0.37,0.12,0.33,0.48
		c-0.04,0.35-0.54,0.57-1.12,0.57c-0.55,0-1.52-0.17-1.61-1.23c0.36,0.06,0.92,0.34,1.16,0.69c-0.07-0.64-0.08-1.1,0-1.77
		c-0.3,0.42-0.8,0.64-1.14,0.69c0.1-0.46,0.49-0.94,0.95-1.22h-2.37c0.46,0.29,0.85,0.77,0.95,1.22c-0.35-0.06-0.83-0.28-1.12-0.69
		c0.07,0.67,0.07,1.12,0,1.77c0.23-0.35,0.78-0.62,1.14-0.69c-0.09,1.06-1.06,1.23-1.61,1.23c-0.58,0-1.08-0.22-1.12-0.57
		c-0.04-0.35,0.18-0.47,0.34-0.48c0.18-0.02,0.39,0.19,0.43,0.58c0.21-0.28,0.4-1.39-0.2-1.43c-0.46-0.03-0.7,0.52-0.79,1.11
		c-0.15-0.48-0.57-1.11-1.03-0.98c-0.58,0.16-0.2,1.25,0.18,1.46c-0.09-0.19-0.07-0.62,0.21-0.65c0.29-0.03,0.45,0.23,0.46,0.44
		c0.02,0.36-0.44,0.6-0.9,0.72c-0.85,0.2-1.41-0.24-1.64-0.54c0.39-0.17,0.69-0.08,1.08,0.09c-0.2-0.38-0.41-1.02-0.48-1.42
		c-0.1,0.43-0.4,0.76-0.74,1c-0.08-0.35-0.06-0.96,0.29-1.48l-1.3,0.55c0.62,0.69,1.35,2.26,1.76,3.56
		c-0.25,0.22-0.39,0.5-0.39,0.85c0,0.6,0.39,0.97,0.77,1.22c-0.71,0.47-1.37,1.04-1.96,1.7c-0.89,1-1.59,2.17-2.08,3.47
		c0.18,0.18,0.96,1.04,1.14,1.27c0.33,0.41,0.52,0.82,0.53,1.14c0.02,0.59,0.14,0.82,0.46,1.22c0.1,0.12,0.24,0.59,0.25,0.87h6.47
		v7.04c-0.25,0.02-0.52,0.08-0.74,0.35c0.75,0.3,1.46,0.57,2.17,0.79c0.07-0.46,0.16-0.75,0.39-1.03c0,0-0.94-0.09-1.44-0.12v-7.04
		h6.32c-0.03,0.97-0.19,1.9-0.51,2.79c-0.33,0.92-0.81,1.75-1.42,2.47c-0.61,0.71-1.31,1.27-2.1,1.66c-0.13,0.06-0.12,0.15-0.25,0.2
		c-0.11,0.12-0.22,0.33-0.31,0.57c-0.08,0.21-0.11,0.36-0.15,0.64c0.3,0.09,0.46,0.14,0.74,0.21c2.22,0.56,2.77,0.39,2.9,0.3l0,0
		c0.5-0.38,0.96-0.82,1.4-1.31c0.89-1.01,1.59-2.18,2.08-3.49c0.51-1.35,0.76-2.79,0.76-4.27C51.19,25.13,51.19,25.04,51.18,24.77"
		/>
	<path d="M45.26,20.74c-0.06,0.05-0.08,0.12-0.06,0.18c0.02,0.06,0.07,0.12,0.19,0.13c-0.07,0.06-0.13,0.14-0.15,0.26
		c0.12,0.02,0.22-0.02,0.3-0.07c-0.03,0.11,0.01,0.18,0.07,0.21c0.04,0.03,0.11,0.03,0.17,0c0.48,0.77,0.81,1.66,0.95,2.57
		c-0.06-0.04-0.14-0.07-0.24-0.07c0.01,0.13,0.06,0.23,0.13,0.29h-1.58c0.01-0.1-0.04-0.19-0.1-0.21c-0.06-0.02-0.14-0.01-0.21,0.08
		c0-0.09-0.04-0.19-0.12-0.28c-0.09,0.09-0.12,0.19-0.12,0.28c-0.07-0.09-0.15-0.1-0.22-0.08c-0.06,0.02-0.11,0.11-0.1,0.21H42.8
		c0.05-0.06,0.09-0.15,0.1-0.27c-0.12,0-0.21,0.04-0.27,0.1v-2.19c0.1,0.02,0.2-0.04,0.22-0.1c0.02-0.06,0.01-0.14-0.08-0.21
		c0.09,0,0.19-0.04,0.28-0.13c-0.09-0.08-0.19-0.12-0.28-0.12c0.09-0.07,0.1-0.15,0.08-0.22c-0.02-0.07-0.11-0.12-0.22-0.1v-1.85
		c0.06,0.05,0.14,0.08,0.23,0.1c0.01-0.11-0.02-0.2-0.06-0.26c0.42,0.14,0.83,0.34,1.22,0.59C44.47,19.89,44.89,20.28,45.26,20.74
		 M47.05,24.01c0.11,0.07,0.07,0.25-0.07,0.23c-0.14-1.15-0.56-2.27-1.22-3.21c0.01-0.01,0.01-0.01,0.02-0.02
		c0.12-0.04,0.24-0.15,0.27-0.33c-0.2-0.02-0.33,0.07-0.41,0.18c-0.04-0.06-0.09-0.12-0.14-0.18c-0.4-0.51-0.86-0.94-1.37-1.28
		c-0.48-0.32-0.99-0.56-1.52-0.7c0.01-0.12,0.17-0.14,0.23-0.03c0.02-0.2-0.15-0.3-0.25-0.26c-0.06,0.02-0.1,0.07-0.11,0.16
		c-0.06-0.08-0.15-0.14-0.29-0.15c-0.01,0.13,0.03,0.23,0.09,0.3c-0.09,0-0.14,0.04-0.17,0.08c-0.05,0.09,0.02,0.28,0.22,0.3
		c-0.1-0.08-0.06-0.23,0.07-0.22v2.47c-0.12-0.04-0.28-0.02-0.41,0.1c0.14,0.13,0.29,0.14,0.41,0.11v2.69
		c-0.13,0.01-0.17-0.16-0.06-0.23c-0.2,0-0.29,0.18-0.24,0.28c0.03,0.06,0.09,0.11,0.2,0.1c-0.06,0.07-0.1,0.16-0.11,0.28
		c0.12,0,0.21-0.05,0.28-0.11c-0.01,0.11,0.04,0.17,0.1,0.21c0.09,0.05,0.27-0.04,0.27-0.24c-0.07,0.1-0.23,0.07-0.23-0.05h1.86
		c-0.03,0.12-0.02,0.27,0.11,0.41c0.13-0.13,0.14-0.29,0.11-0.41h2.08c0.01,0.13-0.15,0.17-0.23,0.06c0,0.2,0.19,0.28,0.28,0.23
		c0.06-0.03,0.11-0.09,0.1-0.21c0.07,0.06,0.16,0.1,0.29,0.1c-0.01-0.12-0.05-0.21-0.12-0.28c0.12,0.01,0.17-0.04,0.2-0.1
		C47.34,24.19,47.25,24,47.05,24.01"/>
	<path d="M45.94,23.33c0.08-0.04,0.15-0.1,0.17-0.16c-0.09,0.03-0.16-0.01-0.18-0.02c0.06-0.04,0.14,0,0.06-0.11
		c-0.07-0.12-0.12-0.12-0.2-0.04c-0.08,0.08-0.58-0.02-0.58-0.4c0.04,0.07,0.1,0.11,0.17,0.14c0.02,0.01,0.04,0.02,0.06,0.03
		c0.02,0,0.04,0.01,0.07,0.01c0.05,0.02,0.1,0.03,0.14,0.02c0.01,0,0.02,0,0.03,0v-0.01c0.1-0.02,0.19-0.09,0.2-0.2
		c0.02-0.21-0.18-0.3-0.4-0.48c-0.09-0.07-0.15-0.13-0.2-0.19c-0.08-0.15-0.02-0.28-0.21-0.56c-0.01-0.07-0.03-0.14-0.06-0.24
		c-0.1,0.18-0.14,0.52,0.12,0.8c0.21,0.23,0.66,0.45,0.64,0.65c0,0.04-0.05,0.09-0.12,0.1c-0.02,0-0.04,0-0.06-0.01
		c-0.01,0-0.02-0.01-0.04-0.01c-0.03-0.01-0.06-0.02-0.09-0.04c-0.05-0.03-0.1-0.06-0.16-0.12c-0.18-0.17-0.35-0.43-0.46-0.57
		c-0.21-0.27-0.11-0.52-0.08-0.74c0.15-0.2-0.09-0.62-0.23-0.72c0,0,0.03-0.09-0.01-0.21c-0.03,0.02-0.09,0.02-0.13,0.01
		c-0.04-0.08-0.05-0.09-0.11-0.1c-0.09-0.01-0.09-0.06-0.1-0.1c-0.05,0.05-0.07,0.09-0.12,0.1c-0.07,0-0.1,0-0.13,0.02
		c-0.05,0.04-0.07,0.06-0.16,0.06c-0.08,0-0.08,0.05-0.08,0.11c0.01,0.04,0.01,0.1,0.06,0.12c0.01,0,0.02,0.01,0.03,0.01l0.07,0.08
		l0.04-0.09c0.04-0.03,0.15-0.04,0.17,0.04c0.02,0.05,0.03,0.07-0.04,0.08c-0.08,0.01-0.11,0.01-0.18,0.01
		c-0.05,0-0.05,0.06-0.05,0.1c0,0.05,0.06,0.07,0.16,0.05c0.1-0.02,0.28-0.04,0.28,0.04c0,0.22-0.25,0.22-0.31,0.48
		c-0.07-0.04-0.12-0.09-0.16-0.15c-0.04-0.07-0.1-0.15-0.19-0.23c-0.05-0.05-0.12-0.12-0.19-0.16c-0.09-0.05-0.09-0.1-0.09-0.19
		c0-0.08,0.04-0.15,0.03-0.23c0-0.01-0.01-0.05-0.02-0.07c-0.02-0.05-0.08-0.09-0.12-0.08c0.02,0.02,0.04,0.03,0.05,0.08
		c-0.02,0.02-0.03,0.04-0.04,0.04c-0.02,0.02-0.02,0.05,0,0.08c0,0,0,0.01,0,0.02c0,0.01,0,0.02,0,0.04c0,0.01-0.01,0.01-0.01,0
		c-0.02-0.06-0.04-0.14-0.1-0.14c-0.01,0-0.03,0-0.04,0c0,0,0-0.01,0-0.01c0-0.06-0.07-0.1-0.13-0.03c0.02,0,0.04,0.01,0.05,0.02
		c-0.01,0.02-0.01,0.06-0.01,0.06c0,0.06,0.04,0.08,0.1,0.08c0.01,0,0.02,0.01,0.02,0.01c0,0.01,0.01,0.02,0.01,0.03
		c0,0.01,0,0.01-0.01,0.01c-0.1-0.05-0.15,0-0.15,0.05c0,0,0,0.03,0,0.04c-0.04,0.02-0.05,0.08,0.02,0.12c0-0.02,0-0.05,0.02-0.06
		c0.01,0,0.01,0,0.02-0.01c0.01,0.01,0.02,0.02,0.03,0.03c0.01,0.01,0.03,0,0.06-0.02c0.01-0.01,0.02-0.01,0.03,0
		c0.01,0.01,0.02,0.01,0.03,0.02c0.01,0.01,0.01,0.01,0,0.02c-0.06,0.07-0.05,0.12,0.02,0.15C43.12,20.85,43,20.82,43,20.71
		c-0.09,0.14,0.06,0.24,0.18,0.19c0,0.05,0,0.15,0.02,0.15c0-0.01,0.01-0.03,0.03-0.03c0.01,0,0.01,0.01,0.01,0.01
		c0,0.03,0.02,0.07,0.06,0.08c-0.01-0.02,0-0.04,0.02-0.04c0.02,0.03,0.04,0.07,0.06,0.1c0.06,0.11,0.18,0.37,0.44,0.49
		c-0.13,0.08-0.23,0.2-0.31,0.3c-0.07,0.07-0.19,0.15-0.25,0.11c-0.03-0.02-0.04-0.05-0.08-0.08c-0.03-0.02-0.06-0.03-0.08-0.02
		c0,0-0.03,0.01-0.04,0.02C43,21.97,42.93,22,42.9,22.03c0.03,0,0.06-0.01,0.1,0.02c0,0.02,0,0.05,0,0.05
		c0,0.03,0.02,0.07,0.16,0.06c0.01,0,0.02,0,0.02,0.02c-0.02,0.01-0.04,0.03-0.07,0.02c-0.06-0.02-0.09-0.07-0.14-0.01
		c0,0-0.01,0.02-0.03,0.04c0,0-0.01,0-0.01,0c-0.05,0.02-0.11,0.12-0.04,0.17c0-0.02,0.01-0.06,0.04-0.08
		c0.01,0.01,0.02,0.03,0.03,0.03c0.04,0.06,0.08,0.09,0.18-0.05c0.01-0.01,0.01,0,0.01,0c-0.01,0.07-0.07,0.16,0.02,0.17
		c0,0,0.02,0,0.04,0.01c0,0.01,0,0.01,0,0.02c0.01,0.07,0.12,0.09,0.16,0.07c-0.03-0.01-0.07-0.03-0.09-0.09
		c0.02,0,0.04,0,0.04-0.01c0.05-0.05-0.01-0.11,0.02-0.15c0.01-0.01,0.01-0.01,0.02,0c0.02,0.03,0.06,0.09,0.13,0.05
		c0.04-0.02,0.05-0.06,0.05-0.09c0.09-0.04,0.18-0.07,0.24-0.05c-0.01-0.05,0.04-0.12,0.15-0.14c0.1-0.03,0.14,0,0.18,0.03
		c0.01-0.04,0.05-0.11,0.1-0.17c-0.01,0.4,0.52,0.39,0.65,0.62c-0.16-0.07-0.34-0.11-0.44-0.08c-0.13,0.02-0.35,0.15-0.39,0.29
		c-0.02,0.12,0.1,0.34,0.23,0.42c-0.15,0.03-0.21-0.02-0.35,0.02c0,0-0.01-0.01-0.01-0.01c-0.12,0.01-0.14-0.2-0.28-0.14
		c-0.01,0-0.03,0.02-0.04,0.03h0c-0.05,0-0.13,0.07-0.12,0.13c0.02-0.02,0.04-0.04,0.09-0.05c0,0.01,0,0.03,0,0.03
		c0,0.02,0,0.05,0.05,0.05c0.03,0,0.04-0.01,0.06-0.01c0.01,0,0.02,0.01,0.02,0.02c0,0.05-0.18-0.03-0.15,0.12
		c0,0,0.02,0.03,0.03,0.04c-0.01,0.05,0.03,0.09,0.11,0.07c-0.02-0.01-0.04-0.03-0.04-0.05c0.01,0,0.03,0,0.03,0
		c0.01,0,0.02-0.01,0.02-0.02c0-0.01,0-0.01,0.01-0.01c0.01,0,0.02,0.01,0.02,0.01c0,0.01-0.01,0.02-0.01,0.03
		c0,0,0.01,0.04,0.01,0.05c0,0.05,0.07,0.11,0.15,0.06c-0.02,0-0.07-0.01-0.08-0.04c0.01,0,0.04-0.01,0.04-0.02
		c0.01-0.01,0.02-0.03,0.02-0.05c0-0.02,0.01-0.02,0.02-0.02c0.01,0,0.03,0,0.04,0c0.02,0,0.02,0.01,0.02,0.01
		c0.02,0.03,0.06,0.06,0.11,0.05c0.03-0.01,0.04-0.03,0.05-0.04c0.02,0.01,0.04,0.02,0.07,0.04c-0.02-0.06,0.02-0.1,0.15-0.02
		l0.09-0.07c0,0,0.12,0.05,0.16-0.01c0.07-0.06,0.03-0.07,0.03-0.13c-0.05-0.12-0.08-0.11-0.11-0.22c-0.04-0.2,0.23-0.31,0.39-0.28
		c0.03,0.12,0.21,0.45,0.5,0.55c0.18,0.06,0.26-0.14,0.32-0.11c0.01,0.01,0.02,0.02,0.03,0.05c-0.01,0.09,0,0.17-0.02,0.21
		c-0.02,0.04-0.12,0.01-0.18,0c-0.04,0-0.07,0.02-0.07,0.03c-0.06,0.01-0.12,0.06-0.12,0.12c0.02-0.02,0.06-0.05,0.1-0.05
		c0,0.01,0,0.02,0,0.03c0.01,0.08,0.1,0.1,0.15,0.05c0-0.01,0.03,0,0.02,0.01c-0.04,0.03-0.13,0.11-0.06,0.14
		c0,0,0.02,0.01,0.04,0.02c0,0.05,0.03,0.1,0.07,0.1c-0.01-0.03-0.02-0.04,0.01-0.09c0.02,0,0.04,0,0.04,0
		c0.05,0,0.03-0.09,0.08-0.12c0.01-0.01,0.01,0,0.01,0c-0.02,0.06-0.03,0.12,0.02,0.14c0.01,0,0.02,0,0.04,0.01
		c0.02,0.04,0.07,0.07,0.14,0.04c-0.02-0.01-0.05-0.02-0.06-0.05c0.01-0.02,0.03-0.04,0.04-0.05c0.04-0.12-0.07-0.12-0.07-0.17
		c0-0.06,0.12-0.02,0.12-0.14c0,0,0-0.01-0.01-0.02c0.06-0.03,0.12-0.07,0.12-0.11C46.02,23.37,45.95,23.34,45.94,23.33L45.94,23.33
		z"/>
	<path d="M40.05,26.85l-0.09-0.01c-0.1-0.01-0.23,0.04-0.24,0.18c-0.01,0.14,0.09,0.21,0.21,0.22l0.06,0c0,0.03-0.01,0.06-0.01,0.09
		c-0.03,0.19-0.08,0.51-0.14,0.88l-0.96-1.38c0.45-0.18,0.82-0.38,1.01-0.38C40.05,26.46,40.09,26.54,40.05,26.85 M39.69,29.26
		l-1.52-2.18c0.17-0.04,0.33-0.09,0.49-0.14l1.14,1.63C39.76,28.79,39.72,29.03,39.69,29.26 M39.53,30.24l-2.16-3.1
		c0.07,0,0.14,0,0.2,0c0.11,0,0.22-0.01,0.33-0.02l1.73,2.48C39.59,29.84,39.56,30.06,39.53,30.24 M37.09,27.16l2.37,3.4
		C38.19,30.07,36.93,28.94,37.09,27.16 M40.61,26.9l-0.11-0.01l0-0.1c0.02-0.38-0.21-0.66-0.62-0.66c-0.36,0-1.07,0.47-2.05,0.47
		c-0.42,0-0.92-0.2-1.23-0.39l-0.12,0.29c0-0.01,0-0.02,0-0.03c0-0.13-0.11-0.24-0.24-0.24c-0.14,0-0.24,0.11-0.24,0.24
		c0,0.13,0.11,0.24,0.24,0.24c0.08,0,0.14-0.04,0.19-0.09l-0.12,0.29c0.04,0.02,0.08,0.04,0.13,0.05c-0.14,1.49,0.96,3.39,2.91,3.97
		c0.29-0.08,0.58-0.03,0.58,0.28c0,0.19-0.1,0.28-0.27,0.28c-0.12,0-0.19-0.07-0.19-0.15c0-0.13,0.23-0.05,0.25-0.14
		c0.03-0.12-0.05-0.17-0.18-0.17c-0.14,0-0.34,0.09-0.34,0.31c0,0.27,0.21,0.43,0.44,0.43c0.22,0,0.67-0.12,0.61-0.65
		c0.1,0.01,0.22-0.01,0.25-0.11l0.02-0.3l-0.1-0.01l0.08-3.42l0.08,0.01c0.13,0.01,0.23-0.05,0.24-0.18
		C40.82,26.97,40.71,26.91,40.61,26.9"/>
	<path d="M38.89,19.68c0.01-0.03,0.02-0.05,0.04-0.05c0.03,0,0.04-0.01,0.05-0.03c0.01-0.03-0.02-0.04-0.04-0.06
		c0.03-0.01,0.04-0.02,0.03-0.03c-0.02-0.02-0.04,0.01-0.05,0c0-0.01,0.02-0.02,0.03-0.03c0.01-0.01,0.02-0.01,0.04,0l0.12,0.06
		c0.02,0.01,0.03,0.01,0.03,0.03c0,0.02,0.01,0.03-0.01,0.04c-0.01,0-0.01-0.04-0.03-0.04c-0.02,0-0.02,0.02-0.01,0.05
		c-0.03-0.01-0.06-0.02-0.07,0c-0.01,0.02-0.01,0.04,0.01,0.06c0.01,0.01,0,0.04-0.01,0.06c-0.01,0.03-0.04,0.07-0.09,0.04
		C38.86,19.76,38.87,19.71,38.89,19.68 M39.03,19.37c-0.02,0.04-0.06,0.06-0.1,0.03c-0.03-0.03,0.01-0.04-0.03-0.11
		C38.93,19.32,39.01,19.37,39.03,19.37 M39.12,19.42c0.02,0.01,0.11,0.05,0.15,0.06c-0.07,0.02-0.05,0.04-0.1,0.04
		C39.13,19.52,39.11,19.46,39.12,19.42 M38.79,19.5C38.79,19.5,38.78,19.5,38.79,19.5C38.78,19.5,38.79,19.5,38.79,19.5 M40.2,20.02
		c0.46,0,0.69-0.15,0.69-0.29c0-0.51-1.27-0.19-1.27-0.51c0-0.05,0.04-0.1,0.09-0.14h0.02c0.64-0.06,0.65-0.5,1.1-0.59
		c-0.55-0.08-0.63,0.35-0.86,0.38c0.13-0.06,0.17-0.21,0.16-0.26c-0.11,0.15-0.36,0.16-0.5,0.34c-0.02,0.03-0.03,0.06-0.02,0.09
		c-0.08,0.05-0.13,0.11-0.13,0.19c0,0.49,1.29,0.15,1.29,0.51c0,0.12-0.22,0.21-0.58,0.21c-0.26,0-0.45-0.19-0.95-0.06
		c0-0.08,0.17-0.24,0.1-0.31c0.05-0.02,0.08-0.06,0.08-0.1c-0.03-0.03-0.06-0.04-0.1-0.04c0.02-0.02-0.01-0.05-0.02-0.07
		c0-0.01-0.01-0.06-0.03-0.07c-0.02-0.01-0.06-0.05-0.11-0.08c-0.06-0.03-0.09-0.03-0.11-0.03c-0.02-0.01-0.07,0.01-0.07,0.01
		c-0.03,0-0.06,0-0.06,0.03c-0.02-0.02-0.06-0.04-0.09-0.04c-0.02,0.04-0.03,0.08-0.01,0.14c-0.04,0-0.1,0.12-0.14,0.11
		c0.02,0.03,0.03,0.05,0.04,0.05c-0.04,0.07-0.05,0.15-0.1,0.16c0.01,0.02,0.02,0.03,0.03,0.04c-0.04,0.1-0.06,0.23-0.07,0.29h0
		c-0.03-0.03-0.06-0.06-0.1-0.08c-0.07-0.04-0.07-0.08-0.06-0.15c0.01-0.06,0.05-0.12,0.06-0.18c0-0.01-0.01-0.04-0.01-0.06
		c-0.01-0.04-0.06-0.07-0.1-0.07c0.02,0.01,0.04,0.03,0.03,0.07c-0.01,0.01-0.03,0.03-0.04,0.03c-0.02,0.02-0.03,0.04-0.01,0.07
		c0.01,0.01,0.01,0.01,0,0.01c0,0.01,0,0.02-0.01,0.03c-0.01,0.01-0.01,0.01-0.01,0c-0.01-0.05-0.02-0.11-0.07-0.12
		c-0.01,0-0.03,0-0.03,0c0,0,0-0.01,0-0.01c0.01-0.05-0.04-0.09-0.12-0.03c0.02,0,0.04,0.01,0.05,0.02
		c-0.01,0.01-0.02,0.04-0.02,0.05c-0.01,0.05,0.03,0.07,0.08,0.07c0.01,0,0.02,0,0.02,0.01c0,0.01,0,0.01,0,0.02
		c0,0.01,0,0.01-0.01,0.01c-0.09-0.04-0.13,0-0.14,0.03c0,0,0,0.03,0,0.04c-0.03,0.02-0.05,0.06,0.01,0.1c0-0.02,0-0.05,0.03-0.05
		c0,0,0.01,0,0.01,0c0.01,0.01,0.02,0.02,0.02,0.02c0.01,0,0.02,0,0.06-0.02c0.01,0,0.01-0.01,0.02,0c0.01,0.01,0.01,0.01,0.02,0.02
		c0.01,0,0,0.01,0,0.01c-0.07,0.05-0.07,0.11,0.01,0.12c0.01,0,0.01,0.01,0.01,0.01c-0.02,0.11-0.17,0.08-0.15-0.02
		c-0.1,0.12,0.03,0.21,0.15,0.15c0.01,0,0.01,0,0.01,0c0,0.02,0.01,0.04,0.03,0.04c0-0.01,0.01-0.02,0.03-0.02
		c0.01,0,0.01,0.01,0.01,0.01c0,0.03,0,0.06,0.04,0.07c0-0.02,0.01-0.04,0.02-0.04c0.02,0,0.05,0.09,0.12,0.16
		c-0.1,0.05-0.27,0.09-0.29,0.09c-0.02,0-0.18-0.02-0.22,0.01c-0.07,0.04-0.25,0.1-0.31,0.03c-0.02-0.02-0.01-0.05-0.03-0.09
		c-0.02-0.02-0.04-0.04-0.06-0.05c0,0-0.03,0-0.04,0c-0.03-0.03-0.1-0.04-0.12-0.01c0.02,0.01,0.05,0.01,0.07,0.04
		c-0.01,0.01-0.02,0.03-0.02,0.04c-0.02,0.02-0.01,0.06,0.11,0.1c0.01,0,0.01,0.01,0.01,0.02c-0.02,0.01-0.04,0.01-0.06-0.01
		c-0.04-0.04-0.05-0.09-0.1-0.06c0,0-0.02,0.01-0.03,0.02c0,0-0.01,0-0.01,0c-0.05-0.01-0.13,0.06-0.09,0.11
		c0.01-0.01,0.03-0.04,0.06-0.05c0.01,0.01,0.01,0.03,0.01,0.04c0.01,0.06,0.04,0.1,0.15,0.02c0.01-0.01,0.01,0,0.01,0.01
		c-0.03,0.05-0.11,0.1-0.05,0.14c0,0,0.02,0.01,0.03,0.02c0,0-0.01,0.01-0.01,0.01c-0.01,0.07,0.06,0.11,0.1,0.11
		c-0.02-0.02-0.05-0.05-0.04-0.1c0.01,0,0.03,0.01,0.03,0.01c0.06-0.02,0.03-0.09,0.06-0.11c0.01-0.01,0.02,0,0.02,0.01
		c0,0.03,0.02,0.09,0.09,0.09c0.06-0.01,0.09-0.06,0.09-0.1c0-0.01,0-0.01,0-0.01c0.02,0.02,0.04,0.04,0.03,0.07
		c0.01,0,0.04-0.02,0.05-0.05c0.01,0.03,0.02,0.08-0.03,0.12c0.03-0.01,0.09-0.04,0.11-0.12c0.01,0.01,0.02,0.02,0.02,0.04
		c0,0,0,0,0,0c0.03,0.01,0.07,0.01,0.14-0.01c0.01,0,0.01,0,0.01,0.01c-0.01,0.03-0.01,0.05,0.01,0.07c0-0.01,0.02-0.03,0.03-0.03
		c0.02,0,0,0.07,0.04,0.11c0.01-0.17,0.11-0.1,0.21-0.17c0.01-0.01,0.01,0,0.01,0.01c-0.01,0.02-0.02,0.04-0.05,0.06
		c0.04,0,0.13-0.04,0.13-0.1c0-0.01,0.03-0.03,0.07-0.06c0.04,0.01,0.1-0.01,0.12-0.06c0.01,0.02,0.02,0.07,0,0.08
		c0.11,0.01,0.23-0.12,0.27-0.13c0.24-0.05-0.15-0.22,0.35-0.2c0.04,0,0.11-0.02,0.14-0.05c-0.04,0.08-0.04,0.22,0.04,0.24
		c0.03,0,0.1,0.03,0.13,0.05c0,0.01,0,0.01,0,0.01c-0.04,0-0.09,0.02-0.1,0.03c-0.12,0.08-0.12-0.17-0.24-0.13
		c0,0-0.02,0.02-0.03,0.02c-0.05,0-0.12,0.06-0.11,0.11c0.01-0.01,0.04-0.04,0.08-0.04c0,0.01,0,0.02,0,0.03
		c0,0.02,0.01,0.04,0.05,0.04c0.02,0,0.03-0.01,0.05-0.01c0.01,0,0.01,0,0.01,0.01c0,0.05-0.15-0.03-0.12,0.1
		c0,0,0.01,0.03,0.02,0.04c-0.01,0.04,0.03,0.08,0.1,0.06c-0.01-0.01-0.04-0.03-0.03-0.05c0.01,0,0.03,0,0.03,0
		c0,0,0.01,0,0.02-0.02c0,0,0-0.01,0.01-0.01c0.01,0,0.01,0.01,0.01,0.01c0,0.01-0.01,0.02-0.01,0.03c0,0,0.01,0.04,0.01,0.04
		c-0.01,0.05,0.06,0.1,0.13,0.05c-0.02,0-0.06-0.01-0.07-0.03c0.01,0,0.03-0.01,0.03-0.01c0.01-0.01,0.02-0.03,0.02-0.05
		c0-0.01,0.01-0.01,0.01-0.01c0.01,0,0.02,0,0.03,0c0.01,0,0.02,0,0.02,0.01c0.01,0.03,0.05,0.06,0.09,0.04
		c0.08-0.03,0.01-0.1,0.08-0.11c0.01-0.01,0.04-0.01,0.05,0c0.06,0.01,0.16,0.01,0.18-0.02c0.02-0.03,0.01-0.15-0.06-0.19
		c-0.04-0.02,0-0.07-0.04-0.13c0.07,0.03,0.15,0.06,0.24,0.06c0.18,0,0.01-0.03,0.09-0.07c0.09-0.06,0.19-0.03,0.21-0.02
		c0.02,0,0.04,0.01,0.04,0.04c-0.02,0.1,0.01,0.1-0.01,0.15c-0.02,0.04-0.09,0.01-0.15,0c-0.03,0-0.05,0.02-0.05,0.02
		c-0.05,0.01-0.1,0.05-0.09,0.1c0.01-0.01,0.04-0.03,0.08-0.04c0,0.01,0,0.01,0,0.02c0.01,0.06,0.08,0.08,0.12,0.04
		c0.01-0.01,0.02,0,0.01,0.01c-0.04,0.03-0.1,0.09-0.05,0.11c0,0,0.02,0.01,0.03,0.01c0,0.04,0.03,0.08,0.06,0.09
		c-0.01-0.02-0.02-0.03,0-0.08c0.01,0,0.03,0,0.03,0c0.04,0,0.02-0.08,0.07-0.1c0.01,0,0.01,0,0.01,0c-0.01,0.05-0.02,0.1,0.02,0.11
		c0,0,0.02,0,0.03,0.01c0.01,0.03,0.05,0.06,0.11,0.03c-0.01,0-0.04-0.02-0.05-0.04c0.01-0.02,0.03-0.04,0.03-0.04
		c0.03-0.1-0.05-0.1-0.05-0.14c0-0.05,0.09-0.02,0.09-0.11c0-0.01-0.01-0.05-0.04-0.06c0,0,0,0,0-0.01h0c0.03,0,0.05,0.01,0.06-0.03
		c-0.07,0-0.05-0.05-0.06-0.09c0-0.01,0-0.01,0.01-0.02c0.02-0.02,0.04-0.04,0.03-0.1c-0.02,0.03-0.1,0.07-0.11,0
		c0,0,0-0.05-0.08-0.04c-0.12,0.01-0.17-0.05-0.4-0.07C40.19,20.03,40.18,20.02,40.2,20.02"/>
	<path d="M38.11,22.46C38.11,22.46,38.12,22.45,38.11,22.46C38.12,22.46,38.12,22.46,38.11,22.46 M37.74,21.67
		c0.02-0.03,0.03-0.06,0.05-0.06c0.03,0,0.05-0.01,0.06-0.03c0.01-0.04-0.02-0.05-0.05-0.07c0.03-0.01,0.05-0.02,0.03-0.04
		c-0.02-0.02-0.05,0.02-0.06,0c-0.01-0.02,0.02-0.03,0.03-0.04c0.01-0.01,0.03-0.01,0.05,0l0.14,0.07c0.02,0.01,0.03,0.02,0.03,0.03
		c0,0.02,0,0.04-0.01,0.05c-0.01,0-0.01-0.04-0.04-0.05c-0.02,0-0.02,0.02-0.01,0.05c-0.04-0.01-0.07-0.03-0.08,0
		c-0.02,0.03-0.01,0.05,0.01,0.07c0.01,0.01,0,0.04-0.01,0.07c-0.01,0.03-0.05,0.08-0.1,0.05C37.72,21.75,37.73,21.7,37.74,21.67
		 M37.91,21.3c-0.02,0.04-0.07,0.07-0.11,0.04c-0.04-0.04,0.01-0.05-0.04-0.12C37.8,21.25,37.89,21.3,37.91,21.3 M38.02,21.36
		c0.02,0.02,0.13,0.06,0.18,0.07c-0.08,0.02-0.06,0.05-0.11,0.05C38.03,21.47,38.01,21.41,38.02,21.36 M37.3,22.01
		C37.3,22,37.3,22,37.3,22.01C37.3,22,37.3,22,37.3,22.01 M40.84,21.75c0-0.14-0.16-0.23-0.61-0.23c-0.45,0-1.47,0.17-1.47-0.09
		c0-0.13,0.2-0.12,0.44-0.1c0.02,0.02,0.05,0.04,0.1,0.05c0.58,0.17,1.27-0.14,1.62-0.04c-0.42-0.32-0.76,0.01-1.21-0.09
		c0.26,0,0.35-0.07,0.36-0.14c-0.2,0.13-0.58-0.07-0.82,0.08c-0.01,0.01-0.03,0.02-0.04,0.03c-0.32-0.01-0.58-0.01-0.58,0.2
		c0,0.45,1.21,0.19,1.59,0.19c0.38,0,0.46,0.04,0.46,0.11c0,0.11-0.38,0.13-0.59,0.13c-0.33,0-1.32-0.17-1.92-0.05
		c0.05-0.1,0.16-0.22,0.1-0.3c0.06-0.02,0.09-0.07,0.09-0.11c-0.03-0.03-0.07-0.04-0.11-0.05c0.02-0.03-0.01-0.06-0.03-0.08
		c0-0.01-0.02-0.07-0.03-0.08c-0.02-0.02-0.06-0.06-0.13-0.09c-0.07-0.03-0.11-0.03-0.14-0.04c-0.01,0-0.08,0.01-0.08,0.01
		c-0.03-0.01-0.07-0.01-0.08,0.03c-0.03-0.03-0.07-0.04-0.1-0.04c-0.02,0.05-0.03,0.09-0.02,0.16c-0.05,0-0.11,0.14-0.16,0.12
		c0.02,0.04,0.04,0.06,0.05,0.06c-0.04,0.08-0.06,0.18-0.12,0.18c0.03,0.04,0.06,0.06,0.08,0.07c-0.01,0.06-0.01,0.12-0.01,0.17
		l-0.1-0.03c-0.01,0-0.02,0-0.03,0c-0.01,0-0.03-0.01-0.04-0.01c0.01,0,0.03,0.01,0.04,0.01l-0.06-0.02
		c-0.05-0.04-0.11-0.12-0.2-0.17c-0.09-0.05-0.09-0.09-0.08-0.19c0-0.08,0.04-0.15,0.04-0.22c0-0.01-0.01-0.05-0.02-0.07
		c-0.01-0.05-0.07-0.09-0.12-0.08c0.02,0.02,0.04,0.03,0.04,0.08c-0.02,0.02-0.03,0.04-0.04,0.04c-0.02,0.02-0.02,0.05,0,0.08
		c0,0,0.01,0.01,0,0.02c0,0.01,0,0.02-0.01,0.04c0,0.02-0.01,0.01-0.01,0c-0.02-0.06-0.04-0.14-0.09-0.14c-0.01,0-0.03-0.01-0.04,0
		c0,0,0-0.01,0-0.01c0-0.06-0.06-0.11-0.13-0.03c0.01,0,0.04,0.01,0.05,0.02c-0.01,0.02-0.02,0.05-0.02,0.06
		c-0.01,0.06,0.03,0.08,0.1,0.08c0.01,0,0.02,0,0.02,0.01c0,0.01,0,0.02,0.01,0.03c0,0.01,0,0.01-0.01,0c-0.1-0.05-0.15,0-0.15,0.05
		c0,0,0,0.03,0,0.04c-0.04,0.03-0.05,0.08,0.01,0.12c0-0.02,0-0.06,0.03-0.07c0,0,0.01,0,0.02-0.01c0.01,0.01,0.02,0.03,0.03,0.03
		c0.01,0,0.03,0,0.06-0.02c0.01-0.01,0.02-0.01,0.03,0c0.01,0,0.02,0.01,0.03,0.02c0.01,0,0.01,0.01,0,0.02
		c-0.07,0.07-0.06,0.13,0.03,0.15c0.01,0,0.02,0.01,0.02,0.02c-0.02,0.13-0.18,0.1-0.17-0.02c-0.1,0.15,0.06,0.26,0.19,0.18
		c0.01-0.01,0.01,0,0.01,0c0,0.02,0.02,0.04,0.04,0.05c0-0.01,0.01-0.03,0.03-0.03c0.01,0,0.01,0.01,0.01,0.01
		c0,0.03,0.01,0.08,0.06,0.08c-0.01-0.02,0-0.05,0.02-0.05c0.02,0,0.08,0.1,0.18,0.16c0.09,0.04,0.14,0.13,0.2,0.07
		c-0.01,0.09,0.07,0.19,0.05,0.19c-0.03,0-0.26-0.02-0.32,0.01c-0.09,0.05-0.3,0.12-0.36,0.03c-0.02-0.03-0.01-0.06-0.04-0.1
		c-0.02-0.03-0.05-0.05-0.07-0.05c0,0-0.03,0-0.05,0c-0.03-0.04-0.11-0.04-0.14-0.02c0.02,0,0.05,0.01,0.08,0.05
		c-0.01,0.01-0.02,0.04-0.02,0.04c-0.02,0.03-0.01,0.07,0.13,0.12c0.01,0,0.02,0.02,0.01,0.02c-0.02,0.01-0.05,0.01-0.07-0.01
		c-0.05-0.04-0.06-0.1-0.12-0.06c0,0-0.02,0.01-0.04,0.02c0,0-0.01,0-0.01,0c-0.06-0.01-0.15,0.06-0.11,0.13
		c0.01-0.02,0.03-0.05,0.07-0.06c0,0.02,0.01,0.03,0.01,0.04c0.01,0.07,0.04,0.12,0.18,0.03c0.01-0.01,0.01,0,0.01,0.01
		c-0.03,0.06-0.12,0.12-0.05,0.16c0,0,0.02,0.01,0.03,0.02c0,0.01,0,0.01-0.01,0.01c-0.01,0.08,0.07,0.14,0.11,0.13
		c-0.02-0.02-0.05-0.06-0.04-0.12c0.01,0,0.04,0.01,0.04,0.01c0.07-0.03,0.04-0.11,0.07-0.13c0.01-0.01,0.02,0,0.02,0
		c0.01,0.03,0.02,0.11,0.1,0.1c0.07-0.01,0.11-0.07,0.1-0.11c0-0.01,0-0.01,0.01-0.01c0.02,0.01,0.05,0.04,0.04,0.08
		c0.01,0,0.04-0.03,0.06-0.06c0.01,0.04,0.02,0.09-0.03,0.14c0.03-0.01,0.11-0.05,0.13-0.13c0.01,0.01,0.02,0.03,0.03,0.04
		c0,0,0-0.01,0.01-0.01c0.03,0.01,0.08,0.01,0.16,0c0.01-0.01,0.01,0,0.01,0.01c-0.01,0.03-0.01,0.06,0.01,0.08
		c0-0.01,0.02-0.04,0.03-0.04c0.02,0,0,0.08,0.05,0.12c0.02-0.2,0.13-0.12,0.25-0.2c0.02-0.01,0.02,0,0.01,0.01
		c-0.01,0.02-0.02,0.05-0.05,0.07c0.14,0.03,0.36-0.18,0.39-0.27c0.06-0.01,0.11-0.01,0.13-0.01c0.4,0.03,0.12-0.36,0.76-0.24
		c0.04,0,0.12-0.04,0.15-0.07c-0.04,0.08-0.05,0.26,0.04,0.27c0.04,0.01,0.12,0.03,0.15,0.06c0.01,0.01,0,0.01,0,0.01
		c-0.05,0.01-0.11,0.02-0.12,0.03c-0.13,0.09-0.14-0.2-0.28-0.15c-0.01,0-0.03,0.02-0.04,0.03c-0.06,0-0.13,0.07-0.12,0.13
		c0.02-0.02,0.05-0.05,0.09-0.05c0,0.01,0,0.03,0,0.03c0,0.02,0.01,0.05,0.05,0.05c0.03,0,0.03-0.01,0.05-0.01
		c0.01,0,0.02,0,0.02,0.02c0,0.05-0.18-0.03-0.15,0.12c0,0,0.02,0.03,0.03,0.04c-0.01,0.05,0.03,0.09,0.11,0.07
		c-0.01-0.01-0.04-0.03-0.04-0.05c0.01,0,0.03,0,0.04,0c0.01,0,0.02-0.01,0.02-0.03c0,0,0-0.01,0.01-0.01
		c0.01,0,0.01,0.01,0.01,0.01c0,0.01-0.01,0.02-0.01,0.03c0,0,0.01,0.04,0.01,0.05c-0.01,0.06,0.07,0.11,0.15,0.06
		c-0.02,0-0.07-0.01-0.08-0.04c0.02-0.01,0.04-0.02,0.04-0.02c0.01-0.01,0.02-0.03,0.02-0.06c0-0.01,0.01-0.01,0.01-0.01
		c0.01,0,0.02,0,0.04,0c0.02,0,0.02,0,0.03,0.01c0.02,0.03,0.06,0.07,0.11,0.05c0.1-0.03,0.02-0.12,0.09-0.14
		c0.01,0,0.04-0.01,0.06,0c0.08,0.02,0.19,0.02,0.21-0.02c0.02-0.04,0.01-0.17-0.07-0.22c-0.05-0.02,0-0.08-0.04-0.15
		c0.08,0.03,0.17,0.07,0.28,0.07c0.21,0,0.26-0.03,0.35-0.09c0.1-0.06,0.22-0.03,0.25-0.03c0.03,0,0.05,0.02,0.04,0.05
		c-0.02,0.11,0.01,0.12-0.01,0.17c-0.02,0.04-0.11,0.01-0.17,0c-0.04,0-0.06,0.02-0.06,0.03c-0.05,0.01-0.11,0.06-0.11,0.12
		c0.02-0.01,0.05-0.04,0.09-0.05c0,0.01,0,0.02,0,0.02c0.01,0.07,0.09,0.1,0.13,0.05c0.01-0.01,0.03,0,0.02,0.01
		c-0.04,0.03-0.12,0.1-0.05,0.12c0,0,0.02,0.02,0.04,0.02c-0.01,0.04,0.03,0.09,0.07,0.1c-0.01-0.03-0.02-0.04,0-0.09
		c0.02,0,0.03,0,0.04,0c0.05,0,0.02-0.09,0.08-0.12c0.01-0.01,0.01,0,0.01,0c-0.02,0.05-0.03,0.12,0.02,0.13
		c0,0,0.02,0.01,0.04,0.01c0.01,0.04,0.06,0.07,0.13,0.04c-0.01-0.01-0.05-0.02-0.05-0.04c0.01-0.02,0.03-0.04,0.03-0.05
		c0.03-0.11-0.06-0.11-0.06-0.16c0-0.05,0.11-0.02,0.11-0.13c0-0.02-0.01-0.06-0.05-0.07c-0.01,0-0.01-0.01,0-0.01l0,0
		c0.03,0,0.06,0.01,0.08-0.04c-0.08,0.01-0.06-0.06-0.07-0.11c0-0.01,0-0.01,0.01-0.02c0.03-0.02,0.05-0.05,0.04-0.12
		c-0.03,0.04-0.12,0.08-0.13,0c0,0-0.01-0.06-0.09-0.04c-0.14,0.01-0.23-0.02-0.49-0.04C40.4,21.99,40.84,21.91,40.84,21.75"/>
	<path d="M37.23,23.67c0.01-0.03,0.02-0.05,0.04-0.05c0.03,0,0.05-0.01,0.06-0.03c0.01-0.03-0.02-0.05-0.05-0.07
		c0.03-0.01,0.05-0.02,0.03-0.04c-0.02-0.02-0.05,0.01-0.06,0c0-0.01,0.02-0.03,0.03-0.03c0.02-0.02,0.03-0.01,0.04,0l0.14,0.07
		c0.01,0.01,0.03,0.02,0.03,0.04c0,0.01,0.01,0.04-0.01,0.04c-0.01,0-0.01-0.04-0.04-0.04c-0.02-0.01-0.02,0.02-0.01,0.05
		c-0.03-0.01-0.06-0.03-0.08,0c-0.01,0.03-0.01,0.05,0.01,0.07c0.01,0.01,0,0.04-0.01,0.07c-0.01,0.03-0.05,0.07-0.1,0.05
		C37.2,23.75,37.21,23.7,37.23,23.67 M37.39,23.32c-0.02,0.04-0.07,0.07-0.11,0.03c-0.04-0.03,0-0.04-0.04-0.12
		C37.28,23.27,37.36,23.32,37.39,23.32 M37.49,23.38c0.02,0.02,0.12,0.05,0.17,0.07c-0.08,0.01-0.06,0.04-0.11,0.04
		C37.5,23.49,37.48,23.42,37.49,23.38 M40.64,23.73c0-0.13-0.14-0.22-0.58-0.22c-0.43,0-1.76,0.16-1.76-0.08
		c0-0.15,0.45-0.09,0.78-0.08c0.01,0.03,0.05,0.05,0.1,0.06c0.55,0.16,1.13-0.22,1.53-0.08c-0.31-0.29-0.72,0.03-1.14-0.06
		c0.25,0,0.5-0.05,0.52-0.12c-0.19,0.12-0.73-0.09-0.96,0.06c-0.02,0.01-0.03,0.02-0.04,0.03c-0.41,0-0.91-0.06-0.91,0.19
		c0,0.43,1.51,0.18,1.87,0.18c0.36,0,0.44,0.04,0.44,0.11c0,0.1-0.36,0.13-0.56,0.13c-0.34,0-1.75-0.18-2.31-0.01
		c0.03-0.1,0.17-0.24,0.1-0.32c0.05-0.02,0.09-0.06,0.09-0.11c-0.03-0.03-0.07-0.04-0.1-0.05c0.02-0.02,0-0.05-0.03-0.07
		c-0.01-0.01-0.02-0.06-0.03-0.07c-0.02-0.02-0.07-0.06-0.13-0.09c-0.06-0.03-0.1-0.03-0.13-0.04c-0.02,0-0.07,0.01-0.08,0.01
		c-0.03,0-0.07,0-0.07,0.03c-0.02-0.02-0.06-0.04-0.1-0.04c-0.03,0.05-0.03,0.09-0.01,0.15c-0.05,0-0.11,0.13-0.15,0.12
		c0.02,0.04,0.03,0.05,0.05,0.06c-0.04,0.08-0.06,0.17-0.11,0.17c0.02,0.02,0.04,0.04,0.05,0.05c-0.01,0.04-0.01,0.09-0.02,0.13
		l-0.05-0.02c-0.03,0-0.06,0-0.07-0.01c-0.02,0-0.04-0.01-0.07-0.01c-0.07,0-0.12-0.12-0.23-0.18c-0.08-0.05-0.09-0.09-0.09-0.18
		c0-0.08,0.04-0.14,0.03-0.21c0-0.01-0.01-0.05-0.02-0.07c-0.01-0.05-0.08-0.08-0.11-0.07c0.02,0.01,0.04,0.03,0.04,0.08
		c-0.01,0.02-0.03,0.03-0.03,0.04c-0.02,0.02-0.02,0.05,0,0.07c0,0,0.01,0.01,0.01,0.02c0,0.01,0,0.02-0.01,0.03
		c0,0.01-0.01,0.01-0.01,0c-0.02-0.06-0.04-0.13-0.09-0.14c-0.01,0-0.03,0-0.03,0c0,0,0-0.01,0-0.01c0-0.05-0.06-0.1-0.13-0.03
		c0.01,0,0.04,0.01,0.05,0.02c-0.01,0.02-0.01,0.05-0.01,0.06c0,0.06,0.04,0.08,0.1,0.08c0.01,0,0.01,0,0.02,0.01
		c0,0.01,0.01,0.02,0.01,0.02c0,0.01,0,0.01-0.01,0.01c-0.1-0.04-0.14,0-0.14,0.04c0,0,0,0.03,0,0.04
		c-0.04,0.03-0.04,0.08,0.02,0.12c0-0.02,0-0.05,0.02-0.06c0,0,0.01,0,0.01-0.01c0.01,0.01,0.03,0.02,0.03,0.03
		c0.01,0,0.02,0,0.06-0.02c0.01-0.01,0.01-0.01,0.03,0c0.01,0,0.02,0.01,0.03,0.02c0.01,0.01,0.01,0.01,0,0.02
		c-0.07,0.06-0.05,0.13,0.03,0.14c0.01,0,0.01,0.01,0.01,0.02c-0.01,0.12-0.17,0.1-0.16-0.02c-0.09,0.14,0.07,0.25,0.19,0.17
		c0.01-0.01,0.01,0,0.01,0c0.01,0.02,0.02,0.04,0.04,0.04c0-0.01,0.01-0.03,0.03-0.03c0,0,0.01,0,0.01,0.01
		c0,0.03,0.01,0.07,0.06,0.08c-0.01-0.03,0-0.05,0.01-0.05c0.02,0,0.11,0.16,0.28,0.26c0.03-0.01,0.08-0.01,0.1-0.05
		c0,0.01,0.02,0.03,0.04,0.04c0.01,0.08,0.06,0.18,0.04,0.18c-0.02,0-0.3-0.01-0.36,0.02c-0.08,0.04-0.28,0.12-0.34,0.03
		c-0.02-0.03-0.01-0.05-0.04-0.1c-0.02-0.03-0.04-0.05-0.06-0.05c-0.01,0-0.03,0-0.05,0c-0.03-0.03-0.1-0.04-0.14-0.02
		c0.03,0,0.05,0.01,0.08,0.05c-0.01,0.01-0.02,0.03-0.02,0.04c-0.01,0.03-0.01,0.07,0.12,0.11c0,0,0.02,0.01,0.01,0.02
		c-0.02,0.01-0.04,0.02-0.07-0.01c-0.05-0.04-0.06-0.09-0.11-0.06c0,0-0.02,0.01-0.04,0.02c0,0-0.01,0-0.01,0
		c-0.05,0-0.14,0.07-0.1,0.13c0.01-0.02,0.03-0.05,0.07-0.06c0.01,0.01,0.01,0.03,0.01,0.04c0.01,0.06,0.04,0.11,0.17,0.03
		c0.01-0.01,0.01,0,0.01,0.01c-0.03,0.05-0.12,0.11-0.05,0.15c0,0,0.02,0.01,0.03,0.02c0,0,0,0.01,0,0.01
		c-0.01,0.07,0.06,0.13,0.11,0.13c-0.02-0.02-0.05-0.06-0.04-0.11c0.02,0.01,0.03,0.02,0.04,0.01c0.06-0.02,0.03-0.1,0.07-0.12
		c0.01-0.01,0.02,0,0.02,0.01c0,0.03,0.02,0.1,0.09,0.09c0.07-0.01,0.1-0.07,0.1-0.11c0-0.01,0-0.01,0.01-0.01
		c0.02,0.02,0.04,0.04,0.04,0.08c0.01,0,0.04-0.03,0.05-0.05c0.01,0.03,0.02,0.08-0.03,0.13c0.03-0.01,0.1-0.04,0.12-0.13
		c0.01,0.01,0.02,0.03,0.03,0.04c0,0,0,0,0.01-0.01c0.03,0.01,0.08,0.02,0.15,0c0.01,0,0.01,0,0.01,0.01c0,0.03,0,0.06,0.01,0.08
		c0-0.01,0.02-0.04,0.03-0.04c0.02,0,0,0.07,0.04,0.12c0.02-0.19,0.24-0.09,0.36-0.17c0.01-0.01,0.02-0.01,0.01,0
		c-0.01,0.02-0.02,0.05-0.05,0.06c0.04,0,0.11-0.02,0.16-0.06c-0.01,0.01-0.01,0.01-0.02,0.02l0.19-0.09
		c0.01-0.02,0.01-0.04,0.01-0.06c0.02-0.01,0.05-0.01,0.07-0.02c0,0,0,0.01-0.01,0.01c0.12,0.01,0.11-0.09,0.16-0.08
		c0.7,0.09,0.3-0.3,1.13-0.22c0.04,0,0.06-0.02,0.09-0.05c-0.04,0.08-0.04,0.22,0.04,0.23c0.04,0.01,0.11,0.03,0.14,0.06
		c0.01,0.01,0,0.01-0.01,0.01c-0.05,0.01-0.1,0.02-0.12,0.03c-0.13,0.08-0.13-0.19-0.27-0.14c-0.01,0-0.03,0.02-0.04,0.03
		c-0.05,0-0.13,0.06-0.11,0.12c0.02-0.02,0.04-0.05,0.09-0.05c0,0.01,0,0.03,0,0.03c0,0.02,0,0.04,0.05,0.04
		c0.03,0,0.04-0.01,0.06-0.01c0.01,0,0.01,0.01,0.01,0.02c0,0.05-0.17-0.03-0.14,0.11c0,0,0.02,0.03,0.03,0.04
		c-0.01,0.04,0.03,0.08,0.11,0.06c-0.01-0.01-0.04-0.03-0.04-0.05c0.01,0,0.03,0,0.04,0c0,0,0.01,0,0.02-0.02c0,0,0-0.01,0.01-0.01
		c0.01,0,0.01,0.01,0.01,0.01c0,0.01-0.01,0.01-0.01,0.03c0,0.01,0.01,0.04,0.01,0.05c-0.01,0.05,0.07,0.1,0.15,0.05
		c-0.02,0-0.07-0.01-0.07-0.04c0.01-0.01,0.03-0.02,0.03-0.02c0.01-0.01,0.02-0.03,0.02-0.05c0-0.01,0.01-0.01,0.01-0.01
		c0.01,0,0.02,0,0.03,0c0.02,0,0.02,0.01,0.03,0.01c0.01,0.03,0.05,0.06,0.11,0.05c0.09-0.03,0.02-0.11,0.09-0.13
		c0.01,0,0.04-0.01,0.05,0c0.07,0.02,0.18,0.01,0.2-0.02c0.02-0.04,0.01-0.16-0.07-0.21c-0.05-0.02,0-0.08-0.04-0.14
		c0.08,0.03,0.16,0.07,0.27,0.07c0.2,0,0.25-0.03,0.33-0.08c0.1-0.06,0.21-0.03,0.24-0.02c0.02,0,0.05,0.02,0.04,0.05
		c-0.02,0.1,0.01,0.11-0.01,0.16c-0.02,0.04-0.11,0.01-0.16,0c-0.04,0-0.06,0.02-0.06,0.03c-0.05,0.01-0.11,0.05-0.11,0.11
		c0.02-0.01,0.05-0.04,0.09-0.05c0,0.01,0,0.02,0,0.02c0.01,0.07,0.08,0.1,0.13,0.05c0.01-0.01,0.02,0,0.02,0.01
		c-0.04,0.03-0.11,0.1-0.05,0.12c0,0,0.02,0.01,0.03,0.02c0,0.04,0.03,0.09,0.06,0.09c-0.01-0.02-0.02-0.04,0-0.08
		c0.01,0,0.03,0,0.04,0c0.04,0,0.02-0.09,0.07-0.11c0.01-0.01,0.01,0,0.01,0c-0.02,0.05-0.03,0.11,0.02,0.12
		c0,0,0.02,0.01,0.03,0.01c0.01,0.04,0.06,0.07,0.12,0.04c-0.01-0.01-0.04-0.02-0.05-0.04c0.01-0.01,0.03-0.04,0.03-0.04
		c0.03-0.11-0.06-0.11-0.06-0.15c0-0.05,0.11-0.02,0.11-0.13c0-0.02-0.01-0.05-0.05-0.06c0,0,0,0,0,0v0c0.03,0,0.06,0.01,0.08-0.03
		c-0.08,0-0.05-0.06-0.06-0.11c0-0.01,0-0.02,0-0.02c0.02-0.02,0.04-0.05,0.03-0.11c-0.03,0.04-0.11,0.08-0.12,0.01
		c0-0.01-0.01-0.06-0.09-0.04c-0.13,0.01-0.22-0.02-0.47-0.04C40.19,23.94,40.64,23.89,40.64,23.73"/>
	<path d="M43.96,27.2L43.96,27.2C43.96,27.2,43.96,27.2,43.96,27.2 M43.32,26.19C43.31,26.19,43.31,26.19,43.32,26.19
		C43.31,26.19,43.31,26.19,43.32,26.19 M43.28,26.34L43.28,26.34L43.28,26.34z M43.4,26.54c0.02-0.03,0.03-0.05,0.04-0.05
		c0.03,0,0.05,0,0.06-0.03c0.01-0.03-0.02-0.05-0.05-0.07c0.03-0.01,0.05-0.02,0.03-0.04c-0.02-0.02-0.05,0.01-0.05,0
		c-0.01-0.02,0.01-0.03,0.02-0.04c0.01-0.01,0.02-0.01,0.04,0l0.14,0.06c0.01,0.01,0.03,0.02,0.02,0.04c0,0.01,0.01,0.04-0.01,0.04
		c-0.02,0.01-0.01-0.04-0.04-0.04c-0.02,0-0.02,0.02-0.01,0.05c-0.03-0.01-0.06-0.03-0.08,0c-0.01,0.03-0.01,0.04,0.01,0.07
		c0.01,0.01,0,0.04-0.01,0.07c-0.01,0.03-0.05,0.07-0.1,0.05C43.38,26.62,43.38,26.56,43.4,26.54 M43.56,26.19
		c-0.02,0.04-0.07,0.07-0.11,0.04c-0.04-0.04,0-0.05-0.04-0.12C43.45,26.13,43.53,26.19,43.56,26.19 M43.66,26.24
		c0.02,0.02,0.12,0.05,0.17,0.07c-0.08,0.02-0.06,0.04-0.11,0.04C43.67,26.35,43.65,26.29,43.66,26.24 M46.77,27.05
		c0-0.01,0-0.01,0.01-0.02c0.03-0.02,0.05-0.05,0.04-0.12c-0.03,0.04-0.12,0.08-0.12,0.01c0,0,0-0.06-0.08-0.04
		c-0.13,0.01-0.26-0.01-0.5-0.03c-0.02,0-0.03-0.01,0-0.02c0.25-0.02,0.7-0.06,0.7-0.21c0-0.13-0.15-0.22-0.58-0.22
		c-0.43,0-1.75,0.16-1.75-0.08c0-0.15,0.45-0.09,0.78-0.08c0.02,0.02,0.05,0.04,0.1,0.06c0.56,0.16,1.19-0.26,1.52-0.16
		c-0.44-0.15-0.71,0.11-1.13,0.02c0.25,0,0.51-0.05,0.52-0.12c-0.19,0.12-0.73-0.08-0.96,0.06c-0.02,0.01-0.03,0.02-0.04,0.03
		c-0.41,0-0.9-0.05-0.9,0.19c0,0.43,1.51,0.18,1.87,0.18c0.36,0,0.44,0.04,0.44,0.1c0,0.1-0.36,0.13-0.56,0.13
		c-0.34,0-1.74-0.19-2.31-0.02c0.03-0.1,0.17-0.24,0.11-0.31c0.05-0.02,0.09-0.06,0.09-0.11c-0.03-0.03-0.07-0.04-0.11-0.05
		c0.02-0.03-0.01-0.05-0.03-0.07c0,0-0.02-0.06-0.03-0.07c-0.02-0.02-0.06-0.06-0.13-0.09c-0.06-0.03-0.1-0.03-0.13-0.03
		c-0.01,0-0.07,0.01-0.08,0.01c-0.03,0-0.07,0-0.07,0.03c-0.03-0.02-0.06-0.04-0.1-0.04c-0.02,0.05-0.03,0.09-0.01,0.15
		c-0.05,0-0.11,0.13-0.15,0.12c0.02,0.04,0.03,0.05,0.05,0.06c-0.04,0.08-0.06,0.17-0.11,0.17c0.03,0.04,0.05,0.06,0.07,0.06
		c0,0.04-0.01,0.09-0.01,0.13l-0.07-0.02c-0.03,0-0.06,0-0.07,0c-0.02,0-0.04-0.01-0.07-0.01c-0.07-0.01-0.12-0.12-0.24-0.18
		c-0.08-0.05-0.09-0.09-0.09-0.18c0-0.07,0.03-0.14,0.03-0.21c0-0.01-0.01-0.05-0.02-0.07c-0.01-0.05-0.08-0.08-0.11-0.08
		c0.02,0.01,0.04,0.03,0.05,0.08c-0.02,0.02-0.03,0.04-0.04,0.04c-0.01,0.02-0.02,0.05,0,0.08c0.01,0,0.01,0.01,0.01,0.01
		c0,0.01,0,0.02-0.01,0.03c0,0.02-0.01,0.01-0.01,0c-0.02-0.05-0.04-0.13-0.09-0.13c-0.01,0-0.03,0-0.04,0c0,0,0,0,0-0.01
		c0-0.05-0.06-0.1-0.13-0.03c0.02,0,0.04,0.01,0.05,0.02c-0.01,0.02-0.02,0.05-0.02,0.06c0,0.06,0.04,0.08,0.1,0.08
		c0.01,0,0.02,0.01,0.02,0.01c0,0,0,0.02,0.01,0.02c0,0.01,0,0.01-0.01,0.01c-0.1-0.04-0.14,0-0.14,0.05c0,0,0,0.03,0,0.04
		c-0.03,0.02-0.04,0.08,0.02,0.12c0-0.02,0-0.05,0.02-0.06c0,0,0.01,0,0.01,0c0.01,0.01,0.02,0.02,0.03,0.02
		c0.01,0,0.02,0,0.06-0.02c0.01,0,0.01,0,0.02,0c0.01,0.01,0.02,0.01,0.03,0.02c0.01,0.01,0.01,0.01,0,0.02
		c-0.07,0.07-0.06,0.13,0.03,0.15c0.01,0,0.01,0.01,0.01,0.02c-0.01,0.12-0.17,0.1-0.16-0.02c-0.09,0.14,0.07,0.25,0.19,0.17
		c0.01-0.01,0.01,0,0.01,0c0.01,0.02,0.02,0.04,0.04,0.04c0,0,0.01-0.02,0.03-0.02c0.01,0,0.01,0,0.01,0.01
		c0,0.03,0.01,0.07,0.06,0.08c-0.01-0.03,0-0.05,0.01-0.05c0.02,0,0.1,0.18,0.28,0.27c-0.01-0.02,0.07-0.04,0.1-0.07
		c0.01,0.03,0.03,0.07,0.06,0.08l0.03-0.01c-0.01,0.08,0.09,0.17,0.07,0.17c-0.03,0-0.19-0.02-0.25,0.01
		c-0.08,0.05-0.28,0.12-0.34,0.04c-0.02-0.03-0.01-0.06-0.04-0.1c-0.02-0.03-0.04-0.05-0.06-0.05c0,0-0.03,0-0.05,0
		c-0.03-0.03-0.11-0.04-0.13-0.01c0.02,0.01,0.05,0.01,0.07,0.05c-0.01,0.02-0.02,0.04-0.02,0.04c-0.02,0.03-0.01,0.07,0.12,0.11
		c0.01,0,0.02,0.01,0.01,0.02c-0.02,0.01-0.04,0.01-0.07-0.01c-0.05-0.04-0.06-0.09-0.12-0.06c0,0-0.02,0.01-0.04,0.02
		c0,0-0.01,0-0.01,0c-0.06,0-0.14,0.06-0.1,0.13c0.01-0.02,0.03-0.05,0.07-0.06c0,0.02,0.01,0.03,0.01,0.04
		c0.01,0.07,0.04,0.12,0.17,0.03c0.02-0.01,0.01,0,0.01,0.01c-0.03,0.06-0.12,0.11-0.05,0.15c0,0,0.02,0.02,0.03,0.02
		c0,0,0,0.01,0,0.01c-0.01,0.07,0.07,0.13,0.11,0.12c-0.02-0.02-0.05-0.06-0.04-0.11c0.02,0.01,0.03,0.01,0.04,0.01
		c0.06-0.03,0.03-0.1,0.07-0.13c0.01-0.01,0.01,0,0.02,0.01c0.01,0.03,0.02,0.1,0.09,0.09c0.07-0.01,0.1-0.07,0.1-0.1
		c0-0.01,0-0.01,0.01-0.01c0.02,0.02,0.04,0.05,0.04,0.08c0.01-0.01,0.04-0.03,0.06-0.06c0.01,0.03,0.02,0.08-0.03,0.13
		c0.03-0.01,0.1-0.05,0.12-0.13c0.01,0.01,0.02,0.03,0.03,0.04c0,0,0-0.01,0-0.01c0.03,0.01,0.08,0.02,0.15,0
		c0.01,0,0.01,0,0.01,0.01c-0.01,0.03-0.01,0.06,0.01,0.08c0-0.01,0.02-0.04,0.03-0.04c0.02,0,0,0.07,0.04,0.12
		c0.02-0.19,0.12-0.12,0.24-0.19c0.01-0.01,0.01-0.01,0.01,0.01c-0.01,0.02-0.03,0.05-0.05,0.06c0.04,0.03,0.22-0.08,0.22-0.15
		c0-0.02,0.07-0.02,0.12-0.04c0.12,0.01,0.11-0.09,0.16-0.09c0.71,0.1,0.3-0.3,1.13-0.22c0.04,0,0.06-0.05,0.09-0.08
		c-0.04,0.08-0.05,0.24,0.04,0.26c0.04,0,0.11,0.03,0.14,0.06c0.01,0.01,0,0.01-0.01,0.01c-0.05,0.01-0.1,0.02-0.12,0.03
		c-0.12,0.08-0.13-0.19-0.27-0.14c-0.01,0.01-0.03,0.02-0.04,0.03c-0.06,0-0.13,0.06-0.12,0.12c0.02-0.02,0.05-0.05,0.09-0.05v0.03
		c0,0.02,0.01,0.04,0.05,0.04c0.03,0,0.03-0.01,0.05-0.01c0.01,0,0.02,0,0.02,0.01c0,0.05-0.17-0.03-0.14,0.11
		c0,0,0.02,0.04,0.03,0.05c-0.01,0.04,0.03,0.09,0.1,0.06c-0.01-0.01-0.04-0.03-0.04-0.05c0.01,0,0.03,0,0.03,0
		c0.01,0,0.02,0,0.02-0.02c0,0,0-0.01,0.01-0.01c0.01,0,0.01,0.01,0.01,0.01c0,0.01-0.01,0.02-0.01,0.03c0,0,0.01,0.04,0.01,0.05
		c-0.01,0.05,0.07,0.11,0.14,0.05c-0.02,0-0.07-0.01-0.08-0.04c0.02-0.01,0.03-0.02,0.04-0.02c0.01-0.01,0.01-0.03,0.01-0.05
		c0-0.01,0.01-0.01,0.01-0.01c0.01,0,0.02,0,0.04,0c0.02,0,0.02,0,0.02,0.01c0.02,0.03,0.06,0.06,0.11,0.04
		c0.09-0.03,0.01-0.11,0.09-0.13c0.01,0,0.04,0,0.06,0c0.07,0.02,0.17,0.02,0.2-0.02c0.02-0.03,0.01-0.16-0.07-0.21
		c-0.04-0.02,0-0.08-0.04-0.15c0.08,0.03,0.16,0.07,0.27,0.07c0.2,0,0.26-0.03,0.35-0.08c0.1-0.06,0.21-0.03,0.24-0.02
		c0.02,0,0.04,0.01,0.03,0.05c-0.03,0.1,0,0.11-0.03,0.16c-0.02,0.04-0.1,0.01-0.16,0c-0.03,0-0.06,0.02-0.06,0.03
		c-0.05,0.01-0.11,0.05-0.11,0.11c0.02-0.01,0.05-0.04,0.09-0.05v0.02c0,0.07,0.08,0.09,0.12,0.05c0-0.01,0.02,0,0.01,0.01
		c-0.04,0.03-0.12,0.1-0.06,0.12c0,0,0.02,0.01,0.03,0.02c-0.01,0.04,0.02,0.09,0.06,0.09c-0.01-0.02-0.01-0.04,0.01-0.08h0.03
		c0.04,0,0.03-0.09,0.08-0.11c0,0,0.01,0,0.01,0c-0.02,0.05-0.04,0.11,0.01,0.13c0,0,0.02,0.01,0.03,0.01
		c0.01,0.04,0.06,0.07,0.12,0.04c-0.01-0.01-0.04-0.02-0.05-0.04c0.02-0.02,0.03-0.04,0.04-0.05c0.04-0.11-0.05-0.11-0.05-0.15
		c0-0.05,0.1-0.02,0.11-0.13c0-0.02,0-0.05-0.04-0.06c0-0.01,0-0.01,0-0.01h0c0.03,0,0.06,0.01,0.08-0.03
		C46.74,27.16,46.77,27.09,46.77,27.05"/>
	<path d="M43.65,28.26c-0.05,0-0.06-0.07-0.06-0.11c0.02,0.02,0.11,0.05,0.16,0.07C43.68,28.23,43.7,28.26,43.65,28.26 M43.58,28.35
		c-0.01,0-0.01-0.04-0.04-0.04c-0.02-0.01-0.02,0.02-0.01,0.05c-0.03-0.01-0.06-0.03-0.08,0c-0.01,0.03-0.01,0.04,0.01,0.06
		c0.01,0.01,0,0.04-0.01,0.06c-0.01,0.03-0.05,0.07-0.09,0.05c-0.05-0.02-0.04-0.07-0.03-0.1c0.02-0.03,0.03-0.05,0.04-0.05
		c0.03,0,0.04-0.01,0.05-0.03c0.01-0.03-0.02-0.05-0.05-0.07c0.03-0.01,0.05-0.02,0.03-0.04c-0.02-0.02-0.05,0.01-0.05,0
		c-0.01-0.01,0.01-0.03,0.02-0.03c0.01-0.01,0.02-0.01,0.04,0l0.13,0.06c0.01,0.01,0.02,0.02,0.02,0.04
		C43.59,28.32,43.59,28.35,43.58,28.35 M43.5,28.1c-0.02,0.04-0.07,0.07-0.1,0.03c-0.03-0.03,0-0.04-0.04-0.11
		C43.4,28.05,43.47,28.1,43.5,28.1 M44.83,28.13c0.01,0.03,0.04,0.05,0.1,0.07c0.53,0.15,1.13-0.25,1.45-0.15
		c-0.42-0.15-0.68,0.1-1.08,0.02c0.23,0,0.48-0.05,0.49-0.11c-0.18,0.12-0.69-0.08-0.91,0.06c-0.01,0.01-0.02,0.02-0.03,0.02
		c-0.29-0.01-0.53-0.01-0.53,0.18c0,0.41,1.1,0.17,1.44,0.17c0.34,0,0.3,0.04,0.3,0.1c0,0.1-0.39,0.12-0.59,0.12
		c-0.3,0-1.19-0.15-1.74-0.05c0.04-0.09,0.14-0.2,0.09-0.27c0.05-0.02,0.08-0.06,0.08-0.11c-0.03-0.03-0.07-0.04-0.1-0.04
		c0.02-0.02,0-0.05-0.02-0.07c-0.01,0-0.02-0.06-0.03-0.07c-0.02-0.02-0.06-0.05-0.12-0.08c-0.06-0.03-0.1-0.03-0.12-0.04
		c-0.01,0-0.07,0.01-0.07,0.01c-0.03,0-0.06,0-0.07,0.03c-0.02-0.02-0.06-0.04-0.09-0.04c-0.02,0.05-0.03,0.08-0.02,0.15
		c-0.05,0-0.1,0.13-0.14,0.11c0.02,0.03,0.03,0.05,0.04,0.05c-0.04,0.07-0.06,0.16-0.1,0.16c0.02,0.02,0.03,0.03,0.04,0.04
		c-0.02,0.05-0.02,0.11-0.03,0.15l-0.05-0.02c-0.01,0-0.01,0-0.02,0c-0.07-0.01-0.1,0-0.21-0.06c-0.08-0.05-0.08-0.09-0.08-0.17
		c0-0.07,0.03-0.13,0.03-0.2c0-0.01-0.01-0.04-0.02-0.06c-0.02-0.04-0.08-0.08-0.11-0.07c0.02,0.01,0.04,0.03,0.04,0.07
		c-0.02,0.02-0.03,0.03-0.03,0.04c-0.02,0.02-0.02,0.05,0,0.07c0.01,0,0.01,0.01,0.01,0.02c0,0.01,0,0.02,0,0.03
		c0,0.01-0.01,0.01-0.01,0c-0.02-0.05-0.04-0.13-0.09-0.13c0,0-0.02,0-0.03,0c0,0,0-0.01,0-0.01c0-0.05-0.06-0.1-0.12-0.03
		c0.01,0,0.04,0.01,0.05,0.02c-0.01,0.02-0.02,0.05-0.02,0.05c0,0.05,0.04,0.07,0.1,0.08c0.01,0,0.01,0,0.02,0.01
		c0,0,0,0.01,0.01,0.02c0,0.01,0,0.01-0.01,0c-0.09-0.04-0.13,0-0.13,0.04c0,0,0,0.03,0,0.04c-0.03,0.02-0.04,0.07,0.02,0.11
		c0-0.02,0-0.05,0.02-0.06c0.01,0,0.01-0.01,0.02-0.01c0.01,0.01,0.02,0.02,0.02,0.02c0.01,0,0.02,0,0.05-0.02
		c0.01-0.01,0.01-0.01,0.02,0c0.01,0.01,0.02,0.01,0.03,0.02c0.01,0.01,0,0.01,0,0.02c-0.06,0.06-0.05,0.12,0.03,0.13
		c0.01,0,0.01,0.01,0.01,0.02c-0.01,0.11-0.16,0.09-0.15-0.02c-0.08,0.13,0.07,0.23,0.18,0.17c0.01-0.01,0.01,0,0.01,0
		c0.01,0.02,0.02,0.04,0.04,0.04c0-0.01,0.01-0.03,0.02-0.03c0.01,0,0.01,0.01,0.01,0.01c0,0.03,0.01,0.07,0.06,0.08
		c-0.01-0.02,0-0.05,0.01-0.05c0.02,0,0.02-0.05,0.16,0.03c0.01,0.02,0.03,0.04,0.05,0.05l0.1-0.02c-0.01,0.08,0.01,0.2,0,0.2
		c-0.03,0-0.18-0.02-0.24,0.01c-0.08,0.04-0.26,0.11-0.32,0.03c-0.02-0.03-0.01-0.05-0.04-0.09c-0.02-0.03-0.04-0.05-0.06-0.05
		h-0.04c-0.03-0.03-0.1-0.04-0.13-0.02c0.02,0.01,0.05,0.01,0.07,0.05c-0.01,0.01-0.02,0.03-0.02,0.04
		c-0.02,0.03-0.01,0.07,0.11,0.11c0,0,0.02,0.01,0.01,0.02c-0.02,0.01-0.04,0.01-0.07-0.01c-0.05-0.04-0.05-0.09-0.11-0.06
		c0,0-0.02,0.01-0.04,0.02c0,0-0.01,0-0.02,0c-0.05,0-0.13,0.06-0.09,0.12c0.01-0.02,0.02-0.05,0.06-0.05
		c0.01,0.02,0.01,0.03,0.01,0.04c0.01,0.06,0.04,0.11,0.16,0.03c0.01-0.01,0.01,0,0.01,0.01c-0.03,0.05-0.11,0.11-0.05,0.15
		c0,0,0.01,0.01,0.03,0.02c0,0.01-0.01,0.01-0.01,0.01c-0.01,0.07,0.06,0.12,0.11,0.12c-0.02-0.02-0.05-0.06-0.04-0.11
		c0.02,0.01,0.03,0.01,0.04,0.01c0.06-0.02,0.03-0.1,0.06-0.12c0.01-0.01,0.01,0,0.01,0.01c0.01,0.03,0.02,0.1,0.09,0.09
		c0.07-0.01,0.1-0.06,0.09-0.1c0,0,0-0.01,0.01,0c0.02,0.01,0.04,0.04,0.03,0.08c0.01-0.01,0.04-0.03,0.05-0.05
		c0.01,0.03,0.02,0.08-0.03,0.13c0.03-0.01,0.1-0.04,0.12-0.12c0.01,0.01,0.02,0.03,0.03,0.04c0,0,0,0,0.01-0.01
		c0.02,0.01,0.07,0.02,0.14,0c0.01,0,0.01,0,0.01,0.01c-0.01,0.03-0.01,0.06,0.01,0.07c0-0.01,0.02-0.04,0.03-0.04
		c0.02,0,0,0.07,0.04,0.11c0.02-0.18,0.16-0.14,0.28-0.21c0.01-0.01,0.01,0,0.01,0.01c-0.01,0.02-0.02,0.04-0.05,0.06
		c0.12,0.08,0.25-0.09,0.29-0.18c0.01-0.01,0.02-0.02,0.03-0.04c0.01,0.02,0.01,0.04-0.02,0.06c0.12,0.01,0.1-0.09,0.15-0.08
		c0.36,0.03,0.08-0.3,0.66-0.2c0.04,0.01,0.11-0.03,0.14-0.06c-0.04,0.07-0.04,0.23,0.04,0.25c0.04,0.01,0.11,0.03,0.14,0.06
		c0.01,0.01,0,0.01,0,0.01c-0.05,0-0.1,0.02-0.11,0.03c-0.12,0.08-0.12-0.18-0.25-0.13c-0.01,0-0.03,0.02-0.04,0.02
		c-0.05,0-0.12,0.06-0.11,0.11c0.01-0.02,0.04-0.04,0.08-0.05c0,0.01,0,0.03,0,0.03c0,0.02,0.01,0.04,0.05,0.04
		c0.03,0,0.03-0.01,0.05-0.01c0.01,0,0.02,0.01,0.02,0.02c0,0.05-0.16-0.03-0.13,0.11c0,0,0.02,0.03,0.03,0.04
		c-0.01,0.04,0.03,0.08,0.1,0.06c-0.01-0.01-0.04-0.03-0.03-0.05c0.01,0,0.03,0,0.03,0c0.01,0,0.01,0,0.02-0.02
		c0-0.01,0-0.01,0.01-0.01c0.01,0,0.02,0.01,0.02,0.01c0,0.01-0.01,0.02-0.01,0.03c0,0,0.01,0.04,0.01,0.04
		c-0.01,0.05,0.07,0.1,0.14,0.05c-0.02,0-0.07-0.01-0.07-0.04c0.01-0.01,0.03-0.01,0.03-0.01c0.01-0.01,0.01-0.03,0.01-0.05
		c0-0.01,0.01-0.01,0.02-0.01c0.01,0,0.02,0,0.03,0c0.02,0,0.02,0,0.03,0.01c0.01,0.03,0.05,0.06,0.1,0.04
		c0.09-0.03,0.01-0.11,0.08-0.12c0.01,0,0.03-0.01,0.05,0c0.07,0.01,0.17,0.01,0.19-0.02c0.02-0.03,0.01-0.16-0.07-0.2
		c-0.04-0.02,0.01-0.07-0.04-0.14C45.11,28.97,45.19,29,45.3,29c0.19,0,0.27-0.03,0.37-0.08c0.11-0.06,0.21-0.03,0.23-0.02
		c0.02,0,0.04,0.02,0.02,0.05c-0.04,0.1-0.02,0.11-0.05,0.15c-0.03,0.04-0.1,0.01-0.16,0c-0.03,0-0.06,0.02-0.06,0.02
		c-0.05,0.01-0.12,0.06-0.13,0.11c0.02-0.01,0.06-0.04,0.1-0.04c0,0.01,0,0.02,0,0.02c-0.01,0.07,0.06,0.09,0.11,0.04
		c0.01-0.01,0.02,0,0.01,0.01c-0.04,0.03-0.13,0.09-0.08,0.12c0.01,0,0.02,0.01,0.03,0.02c-0.02,0.04,0,0.08,0.04,0.09
		c-0.01-0.02,0-0.04,0.03-0.08c0.01,0,0.03,0,0.03,0c0.04,0,0.04-0.09,0.1-0.11c0.01,0,0.01,0,0.01,0
		c-0.03,0.05-0.05,0.11-0.01,0.12c0,0,0.02,0.01,0.03,0.01c0,0.04,0.04,0.06,0.11,0.03c-0.01,0-0.04-0.02-0.04-0.04
		c0.02-0.02,0.04-0.04,0.04-0.04c0.05-0.1-0.03-0.1-0.02-0.14c0.01-0.05,0.1-0.02,0.13-0.12c0-0.02,0-0.05-0.03-0.06
		c-0.01,0-0.01-0.01,0-0.01h0c0.03,0,0.06,0.01,0.08-0.04c-0.08,0.01-0.04-0.06-0.04-0.1c0-0.01,0-0.01,0.01-0.02
		c0.03-0.02,0.06-0.05,0.06-0.11c-0.03,0.03-0.12,0.07-0.12,0.01c0-0.01,0.01-0.05-0.07-0.04c-0.13,0.01-0.3-0.01-0.54-0.04
		c-0.01,0-0.03-0.01,0-0.02c0.23-0.02,0.72-0.05,0.72-0.2c0-0.12-0.02-0.21-0.43-0.21c-0.41,0-1.33,0.15-1.33-0.08
		C44.44,28.11,44.62,28.12,44.83,28.13"/>
	<path d="M43.17,30.34c0.01-0.03,0.03-0.05,0.04-0.05c0.02,0,0.04,0,0.05-0.03c0.01-0.03-0.02-0.04-0.04-0.06
		c0.03-0.01,0.04-0.02,0.03-0.04c-0.02-0.02-0.05,0.01-0.05,0c-0.01-0.01,0.02-0.03,0.02-0.04c0.01-0.01,0.02-0.01,0.04,0l0.12,0.06
		c0.01,0.01,0.02,0.02,0.02,0.03c0,0.01,0,0.04-0.01,0.04c-0.01,0-0.01-0.04-0.03-0.04c-0.02,0-0.02,0.01-0.01,0.04
		c-0.03-0.01-0.06-0.03-0.07,0c-0.01,0.02-0.01,0.04,0.01,0.06c0.01,0.01,0,0.04-0.01,0.06c-0.01,0.03-0.04,0.07-0.09,0.04
		C43.15,30.41,43.16,30.37,43.17,30.34 M43.32,30.03c-0.02,0.03-0.07,0.06-0.1,0.03c-0.03-0.03,0-0.04-0.04-0.1
		C43.22,29.98,43.29,30.03,43.32,30.03 M43.41,30.08c0.02,0.02,0.11,0.05,0.15,0.06c-0.07,0.01-0.05,0.04-0.1,0.04
		C43.42,30.18,43.4,30.12,43.41,30.08 M44.4,30.03c0.01,0.03,0.04,0.05,0.1,0.07c0.53,0.15,1.13-0.25,1.45-0.16
		c-0.42-0.14-0.68,0.11-1.08,0.02c0.23,0,0.48-0.05,0.49-0.11c-0.18,0.12-0.69-0.08-0.91,0.05c-0.02,0.01-0.03,0.02-0.04,0.04
		c-0.16,0.04-0.3,0.12-0.3,0.24c0,0.35,1.35,0.07,1.35,0.19c0,0.09-0.27,0.18-0.62,0.18c-0.27,0-0.74-0.18-1.32-0.03v-0.01
		c0.04-0.1,0.17-0.25,0.11-0.31c0.05-0.02,0.08-0.06,0.08-0.1c-0.03-0.03-0.06-0.04-0.09-0.04c0.01-0.03,0-0.05-0.03-0.07
		c-0.01,0-0.02-0.06-0.03-0.07c-0.02-0.01-0.06-0.05-0.11-0.08c-0.06-0.03-0.09-0.03-0.12-0.04c-0.01,0-0.06,0.01-0.07,0.01
		c-0.03,0-0.06,0-0.06,0.03c-0.02-0.02-0.05-0.03-0.09-0.04c-0.02,0.04-0.03,0.08-0.01,0.14c-0.05,0-0.09,0.12-0.14,0.11
		c0.02,0.03,0.03,0.05,0.04,0.05c-0.04,0.07-0.06,0.15-0.1,0.16c0.02,0.02,0.04,0.04,0.05,0.05c-0.03,0.11-0.04,0.24-0.02,0.33
		c-0.08-0.09-0.21-0.28-0.29-0.33c-0.08-0.05-0.08-0.08-0.08-0.16c0-0.07,0.03-0.13,0.03-0.19c0-0.01-0.01-0.04-0.02-0.06
		c-0.01-0.04-0.07-0.07-0.1-0.07c0.02,0.01,0.04,0.03,0.04,0.07c-0.01,0.01-0.03,0.03-0.03,0.04c-0.02,0.02-0.02,0.04,0,0.07
		c0.01,0,0.01,0.01,0.01,0.01c0,0.01,0,0.02-0.01,0.03c0,0.02-0.01,0.01-0.01,0c-0.02-0.05-0.04-0.12-0.08-0.12c0,0-0.02,0-0.03,0
		c0,0,0-0.01,0-0.01c0-0.05-0.05-0.09-0.11-0.03c0.01,0,0.04,0.01,0.05,0.02c-0.01,0.02-0.01,0.05-0.01,0.05
		c-0.01,0.05,0.03,0.07,0.09,0.07c0.01,0,0.02,0,0.02,0.01c0,0.01,0,0.01,0.01,0.02c0,0.01,0,0.01-0.01,0
		c-0.09-0.04-0.13,0.01-0.13,0.04c0,0,0,0.03,0,0.04c-0.03,0.02-0.04,0.07,0.02,0.1c0-0.02,0-0.05,0.02-0.06c0,0,0.01,0,0.01,0
		c0.01,0.01,0.02,0.02,0.02,0.02c0.01,0,0.02,0,0.05-0.02c0,0,0.01,0,0.02,0c0.01,0.01,0.02,0.01,0.03,0.02
		c0.01,0.01,0.01,0.01,0,0.01c-0.06,0.06-0.05,0.11,0.03,0.13c0.01,0,0.02,0.01,0.02,0.02c-0.01,0.11-0.15,0.09-0.14-0.02
		c-0.08,0.13,0.06,0.22,0.17,0.16c0.01-0.01,0.01,0,0.01,0c0,0.02,0.01,0.04,0.04,0.04c0-0.01,0.01-0.02,0.02-0.02
		c0.01,0,0.01,0.01,0.01,0.01c0,0.03,0.01,0.07,0.05,0.07c-0.01-0.02,0-0.04,0.01-0.04c0.02,0,0,0.17,0.16,0.26
		c0.03,0.09,0.1,0.14,0.19,0.13c0.03,0.06,0.07,0.13,0.05,0.13c-0.02,0-0.21-0.02-0.26,0c-0.04,0.02-0.11,0.05-0.17,0.06l-0.01,0.01
		c0-0.01,0-0.01,0.01-0.01c-0.05,0.01-0.1,0-0.13-0.03c-0.02-0.03-0.01-0.05-0.03-0.09C42.43,31.02,42.4,31,42.39,31
		c0,0-0.03,0-0.05,0c-0.03-0.03-0.09-0.03-0.12-0.01c0.02,0,0.05,0.01,0.07,0.04c-0.01,0.01-0.02,0.03-0.02,0.04
		c-0.02,0.02-0.01,0.06,0.11,0.1c0.01,0,0.02,0.01,0.01,0.02c-0.02,0.01-0.04,0.01-0.06-0.01c-0.05-0.04-0.05-0.08-0.11-0.05
		c0,0-0.02,0.01-0.03,0.02c-0.01,0-0.01,0-0.01,0c-0.05,0-0.13,0.06-0.09,0.12c0.01-0.02,0.02-0.05,0.06-0.05
		c0,0.01,0.01,0.03,0.01,0.04c0.01,0.06,0.03,0.11,0.15,0.03c0.01-0.01,0.01,0,0.01,0.01c-0.03,0.05-0.11,0.1-0.04,0.14
		c0,0,0.01,0.01,0.03,0.02c0,0.01-0.01,0.01-0.01,0.01c-0.01,0.07,0.06,0.12,0.1,0.11c-0.02-0.02-0.05-0.05-0.04-0.1
		c0.01,0.01,0.03,0.01,0.04,0.01c0.05-0.02,0.03-0.09,0.06-0.11c0.01-0.01,0.01,0,0.01,0.01c0.01,0.03,0.02,0.09,0.09,0.09
		c0.06-0.01,0.1-0.06,0.09-0.1c0,0,0-0.01,0.01,0c0.02,0.01,0.04,0.04,0.03,0.07c0.01,0,0.04-0.03,0.05-0.05
		c0.01,0.03,0.02,0.08-0.03,0.11c0.02,0,0.09-0.04,0.11-0.11c0.01,0.01,0.02,0.02,0.02,0.04c0,0,0,0,0.01-0.01
		c0.02,0.01,0.07,0.02,0.13,0c0.01,0,0.01,0,0.01,0.01c-0.01,0.02-0.01,0.05,0,0.07c0-0.01,0.02-0.04,0.03-0.04
		c0.02,0,0,0.07,0.04,0.11c0.02-0.17,0.11-0.1,0.22-0.17c0.01-0.01,0.01,0,0.01,0.01c-0.01,0.02-0.02,0.04-0.05,0.06
		c0.04,0,0.16-0.05,0.16-0.12c0-0.02,0.08-0.1,0.1-0.3c0.01,0,0.03,0,0.04,0c0.14-0.01,0.21-0.11,0.35-0.12
		c-0.03,0.04-0.05,0.14-0.04,0.21c0,0.08,0.1,0.17,0.13,0.19c0.01,0.01,0,0.01,0,0.01c-0.04,0.01-0.09,0.02-0.11,0.03
		c-0.12,0.08-0.12-0.17-0.24-0.13c-0.01,0-0.03,0.02-0.03,0.03c-0.05,0-0.12,0.06-0.11,0.11c0.02-0.02,0.04-0.04,0.08-0.05v0.02
		c0,0.02,0,0.04,0.05,0.04c0.02,0,0.03-0.01,0.05-0.01c0.01,0,0.02,0.01,0.02,0.01c0,0.05-0.16-0.03-0.12,0.1
		c0,0,0.01,0.03,0.02,0.04c-0.01,0.04,0.03,0.08,0.1,0.06c-0.01-0.01-0.04-0.03-0.03-0.05c0.01,0,0.03,0,0.03,0
		c0.01,0,0.01-0.01,0.02-0.02c0,0,0-0.01,0-0.01c0.01,0,0.01,0.01,0.01,0.01c0,0.01-0.01,0.01-0.01,0.03c0,0,0.01,0.04,0.01,0.04
		c-0.01,0.05,0.06,0.1,0.13,0.05c-0.02,0-0.06-0.01-0.07-0.03c0.02-0.01,0.03-0.01,0.03-0.02c0.01-0.01,0.01-0.03,0.01-0.04
		c0-0.01,0.01-0.01,0.01-0.01c0.01,0,0.02,0,0.03,0c0.01,0,0.02,0,0.02,0.01c0.02,0.03,0.05,0.06,0.1,0.04
		c0.08-0.03,0.01-0.1,0.08-0.11c0.01,0,0.03,0,0.05,0c0.06,0.02,0.12,0.03,0.13,0c0.02-0.03,0.01-0.15-0.06-0.19
		c-0.04-0.02,0.06-0.28-0.14-0.4c0.09,0.02,0.39,0.06,0.44-0.01c0.09,0.02,0.19,0.08,0.21,0.1c0.01,0.02,0.02,0.04-0.01,0.05
		c-0.08,0.05-0.07,0.08-0.11,0.09l-0.01,0c-0.02-0.03-0.05-0.07-0.08-0.08c-0.03-0.02-0.06,0-0.06,0c-0.04-0.01-0.11,0-0.13,0.05
		c0.02,0,0.06-0.02,0.09,0c0,0.01-0.01,0.02-0.01,0.02c-0.01,0.01,0,0.03,0.02,0.04h0h0c0,0,0,0,0.01,0.01c0,0.01,0,0.01-0.01,0.01
		c-0.05-0.01-0.13-0.01-0.11,0.04c0,0,0,0.02,0.01,0.03c-0.03,0.03-0.04,0.07-0.02,0.1c0.01-0.02,0.02-0.03,0.06-0.05
		c0.01,0.01,0.02,0.02,0.02,0.03c0.03,0.03,0.07-0.04,0.12-0.03c0.01,0,0.01,0.01,0,0.01c-0.05,0.02-0.09,0.05-0.07,0.09
		c0,0.01,0.01,0.02,0.01,0.03c-0.01,0.03,0,0.08,0.05,0.1c0-0.01-0.02-0.04-0.01-0.06c0.02,0,0.04,0,0.05-0.01
		c0.09-0.05,0.03-0.11,0.06-0.13c0.03-0.03,0.07,0.05,0.14-0.01c0.01-0.01,0.03-0.04,0.01-0.07c0-0.01,0-0.01,0-0.01v0
		c0.02,0.02,0.03,0.04,0.07,0.03c-0.05-0.05,0.01-0.07,0.03-0.1c0-0.01,0.01-0.01,0.02-0.01c0.03,0.01,0.06-0.01,0.1-0.05
		c-0.04,0.01-0.14-0.05-0.08-0.08c0.09-0.03,0.11-0.08,0.07-0.13c-0.07-0.09-0.22-0.1-0.22-0.2c0.06,0,0.12,0,0.13,0
		c0.46,0,0.75-0.13,0.74-0.27c-0.02-0.31-1.38,0.03-1.38-0.2C44.21,30.12,44.29,30.07,44.4,30.03"/>
	<path d="M22.3,6.26c0-0.18-0.15-0.33-0.33-0.33c-0.18,0-0.33,0.15-0.33,0.33c0,0.18,0.15,0.33,0.33,0.33
		C22.15,6.59,22.3,6.44,22.3,6.26"/>
	<path d="M22.19,5.38c0-0.18-0.15-0.33-0.33-0.33c-0.18,0-0.33,0.15-0.33,0.33c0,0.18,0.15,0.33,0.33,0.33
		C22.04,5.71,22.19,5.56,22.19,5.38"/>
	<path d="M22.37,4.98c0.18,0,0.33-0.15,0.33-0.33c0-0.18-0.15-0.33-0.33-0.33c-0.18,0-0.33,0.15-0.33,0.33
		C22.05,4.84,22.19,4.98,22.37,4.98"/>
	<path d="M23.25,4.93c0.18,0,0.33-0.15,0.33-0.33c0-0.18-0.15-0.33-0.33-0.33c-0.18,0-0.33,0.15-0.33,0.33
		C22.93,4.78,23.07,4.93,23.25,4.93"/>
	<path d="M27.01,4.31c0.13,0.13,0.34,0.13,0.47,0c0.13-0.13,0.13-0.34,0-0.47c-0.13-0.13-0.34-0.13-0.47,0
		C26.88,3.97,26.88,4.19,27.01,4.31"/>
	<path d="M26.94,3.61c0.13-0.13,0.13-0.34,0-0.47c-0.13-0.13-0.34-0.13-0.47,0c-0.13,0.13-0.13,0.34,0,0.47
		C26.6,3.74,26.81,3.74,26.94,3.61"/>
	<path d="M26.06,3.47c0.13-0.13,0.13-0.34,0-0.47c-0.13-0.13-0.34-0.13-0.47,0c-0.13,0.13-0.13,0.34,0,0.47
		C25.72,3.6,25.93,3.6,26.06,3.47"/>
	<path d="M25.31,4.02c0.13-0.13,0.13-0.34,0-0.47c-0.13-0.13-0.34-0.13-0.47,0c-0.13,0.13-0.13,0.34,0,0.47
		C24.97,4.15,25.18,4.15,25.31,4.02"/>
	<path d="M23.2,3.57l0.27,0.58l0.33-0.4c0.01,0,0.03,0.01,0.04,0.01c0.03,0.19,0.04,0.53,0.04,0.72c0,0.23,0.19,0.42,0.42,0.42
		c0.23,0,0.42-0.19,0.42-0.42c0-0.16-0.09-0.3-0.22-0.37c-0.16-0.13-0.35-0.29-0.47-0.43c0.01-0.02,0.02-0.03,0.02-0.05l0.56,0.05
		L24.4,3.07l-0.42,0.36c-0.01-0.01-0.01-0.01-0.02-0.01L23.93,2.8l-0.58,0.22l0.39,0.45c-0.01,0.02-0.02,0.03-0.02,0.05L23.2,3.57z"
		/>
	<path d="M27.03,4.6c0.13,0.2,0.17,0.3,0.18,0.46c-0.1-0.04-0.21-0.14-0.34-0.31l0.07,0.77c0.09-0.14,0.17-0.23,0.28-0.28
		c-0.03,0.5-0.23,0.71-0.4,0.74c-0.21,0.04-0.37-0.1-0.4-0.26c-0.04-0.22,0.15-0.36,0.35-0.16c0.04-0.46-0.34-0.46-0.5-0.26
		c0.19-0.45,0.11-0.74-0.28-0.98c-0.25,0.42-0.14,0.69,0.17,1.01c-0.3-0.16-0.58,0.11-0.31,0.45c0.06-0.3,0.32-0.23,0.37,0.01
		c0.05,0.2-0.14,0.46-0.47,0.56c-0.47,0.15-0.63-0.16-0.74-0.42c0.1-0.07,0.35-0.04,0.62,0.13L25.4,5.3
		c-0.11,0.27-0.27,0.38-0.45,0.46C24.94,5.54,25.1,5.1,25.1,5.1l-0.91,0.37c0,0,0.42,0.2,0.57,0.37c-0.19,0.07-0.38,0.1-0.64-0.01
		l0.36,0.7c0.07-0.31,0.23-0.5,0.35-0.52c0.1,0.27,0.2,0.59-0.24,0.82c-0.31,0.16-0.63,0.11-0.73-0.07
		c-0.12-0.21,0.02-0.44,0.26-0.27c-0.04-0.44-0.42-0.43-0.53-0.1c0-0.45-0.11-0.72-0.58-0.84c-0.12,0.45,0.04,0.71,0.49,0.9
		c-0.25-0.03-0.53,0.22-0.18,0.53c0-0.28,0.23-0.32,0.36-0.13c0.09,0.13,0.07,0.34-0.11,0.46c-0.15,0.1-0.43,0.09-0.8-0.25
		c0.11-0.04,0.23-0.03,0.39,0.01l-0.49-0.6c0.03,0.21,0.01,0.37-0.03,0.46c-0.1-0.12-0.14-0.22-0.19-0.46l-0.37,0.33
		c0.35,0.21,0.76,0.55,1.25,1.23c0.52-0.32,1.44-0.77,2.02-1c0.58-0.23,1.55-0.56,2.15-0.69c-0.12-0.83-0.07-1.35,0.04-1.75
		L27.03,4.6z"/>
	<path d="M28.08,8.97C27.62,9.33,27,9,26.72,8.53c0.64-0.26,1.37-0.56,1.87-0.86C28.13,8.37,28.45,8.68,28.08,8.97 M27.98,13.78
		c-0.6,0.26-1.06-0.27-1.17-0.62c-0.12-0.36-0.21-0.65-0.07-0.79c0.26-0.25,0.34-0.45,0.18-0.77c-0.18-0.36-0.57-0.19-0.98-0.09
		c0.19-0.35,0.21-0.6-0.06-0.57c-0.32,0.04-0.32,0.55-0.5,0.49c-0.18-0.06-0.08-0.35-0.08-0.51c0-0.22,0.14-0.29,0.36-0.39
		l1.72-0.65c0.22-0.08,0.38-0.12,0.53,0.03c0.11,0.11,0.39,0.25,0.3,0.42c-0.08,0.17-0.44-0.2-0.7,0c-0.21,0.16-0.03,0.33,0.36,0.44
		c-0.37,0.22-0.77,0.36-0.64,0.75c0.11,0.33,0.3,0.42,0.66,0.42c0.19,0,0.33,0.28,0.5,0.62C28.56,12.89,28.61,13.5,27.98,13.78
		 M24.7,10.3c-0.46,0.04-0.45-0.4-1.27-0.6c0.57-0.12,1.31-0.4,1.95-0.65C25.5,9.59,25.28,10.25,24.7,10.3 M34.29,25.64
		c0.13-0.35-0.52-0.75-0.59-1.26c-0.07-0.51-0.01-0.99-0.59-1.67c-0.57-0.66-2.55-2.78-3.15-3.45c0.15-0.01,0.5-0.1,0.87,0.25
		c0.21,0.2,0.64,0.6,1.03,0.99c0.52-1.33,1.17-2.33,2.1-3.37c0.12-0.13,0.24-0.26,0.36-0.39c-0.34,0.1-0.87,0.18-1.17,0.39
		c-0.02-0.58,0.02-1.05-0.38-1.42c0.15-0.81,0.02-1.8-1.8-3c0.93,0.22,1.48,1.07,2.2,0.42c-0.64-0.02-0.66-1.41-2.96-2.57
		c0.88-0.02,1.57,1.41,2.59,0.6c-0.96-0.11-1.28-1.82-3.02-2.35c0.6,0.07,1.22,0.36,1.74-0.34c-0.6,0.14-0.96-0.41-1.6-0.46
		c0.24-0.75,0.19-1.21-0.07-1.77c-0.45,0.03-0.92,0.17-1.25,0.44c-0.05-0.41-0.48-0.43-0.87-0.41c0.02,0.18,0.1,0.44-0.09,0.47
		c-0.31,0.06-1.34,0.34-2.14,0.65c-0.8,0.31-1.71,0.88-1.97,1.06c-0.16,0.11-0.3-0.15-0.4-0.27c-0.28,0.24-0.56,0.55-0.35,0.86
		c-0.44,0.04-0.93,0.16-1.35,0.48c0,0.51,0.43,1.01,1.06,1.29c-1.07,1.06-0.1,2.05-1.04,2.98c1.33,0.05,1.09-1.8,1.76-2.05
		c-0.07,1.3-0.79,1.53-0.79,2.93c0,0.75,0.44,1.56,0.05,2.05c1.11-0.31,0.82-2.76,1.51-3.5c0.12,0.42,0.05,0.83-0.09,1.25
		c-0.39,1.14,0.04,2.71-0.56,3.22c1.13-0.11,1.27-1.93,2.2-2.59c-0.8,1.64-1.62,5.12-2.82,6.86c-1.93,2.6-3.07,5.78-4.84,5.78
		c-0.78,0-1.37-0.48-1.37-1.47c0-2.96,5.08-5,5.08-8.15c0-1.4-1.14-1.94-1.86-1.94c-0.48,0-1.07,0.24-1.56,0.64
		c-0.21-0.08-0.42-0.13-0.6-0.13c-1.79,0-1.32,3.23-2.88,3.2c0.62,0.35,1.69-0.33,2.32-1.23c-0.26,2.09-3.27,1.54-3.04,4.05
		c0.42-1.97,5.22-1.68,5.22-4.66c0-0.34-0.17-0.62-0.41-0.84c0.36-0.23,0.7-0.32,1.01-0.32c0.57,0,1.1,0.43,1.1,1.27
		c0,2.64-5.05,4.87-5.05,8.12c0,0.55,0.16,1,0.42,1.36c-0.35,0.15-0.72,0.08-1.02-0.28c-0.03,0.83,1.16,1.36,1.92,0.94
		c0.17,0.06,0.34,0.09,0.52,0.11c-0.23,0.62-1,0.81-1.4,0.78c1.24,0.98,3.39-0.3,3.28-1.41c0.98-0.79,1.6-2.15,2.32-3.04
		c-0.04,0.21-0.08,0.41-0.11,0.62c-0.72,1.32-1.4,2.5-1.59,4.23c-0.16,1.45-0.89,2.76-1.91,2.76c-0.22,0-0.59-0.29-0.77-0.15
		c-0.32,0.27-0.02,0.56-0.02,0.83c0,0.41-0.79,0.82-0.79,2.1c0,0.58,0.33,1.26,0.21,1.64c0.32-0.17,0.76-0.71,0.94-1.42
		c0.35,1.68-0.72,1.61,0.05,3.1c0.1-0.5,0.59-0.7,0.89-0.5c0.3,0.21,0.16,0.35-0.06,0.58c-0.22,0.22-0.43,1.34,0.59,1.27
		c-0.19-0.13-0.2-0.42,0.3-0.53c0.7-0.14,0.91,0.18,1.66,0.18c0.46,0,0.59-0.6,0.96-0.6c0.37,0,0.37,0.29,0.24,0.49
		c0.59-0.16,0.7-0.48,0.7-0.81c0-0.33-0.27-0.54-0.06-0.67c0.21-0.13,0.89,0.01,0.62,0.57c0.35-0.06,0.54-0.32,0.54-0.75
		c0-0.43-0.49-0.68-0.95-0.6c-0.08-0.27-0.48-0.42-0.84-0.42c-0.83,0-0.7,0.65-1.27,0.65c-0.91,0-1.79-1.18-1.79-3.17
		c0-1.07,1.15-1.34,1.96-1.69c0.81-0.35,2.24-1.23,3.09-2.66c0.67-1.12,0.69-2.35,0.6-3.8c1.14,0.66,1.28,1.6,1.28,2.29
		c0,0.89-0.46,1.25-0.82,1.41c-0.31,0.14-0.41,0.08-0.44,0.27c-0.04,0.23,0.11,0.36,0.25,0.43c0.41,0.21,0.33,0.61,0.44,1.03
		c0.12,0.43,0.5,1.11,1.14,1.6c0.07-0.26,0.05-0.69,0.01-1.24c0.88,0.43,0.17,2.2,1.88,2.2c-0.31-0.18-0.23-0.64-0.05-0.71
		c0.18-0.07,0.41,0.11,0.74,0.57c0.33,0.46,0.24,0.42,1.05,0.42c0.81,0,0.44-0.28,0.87-0.28c0.43,0,0.4,0.49,0.17,0.86
		c0.72-0.22,0.94-0.77,0.7-1.33c0.63-0.34,0.97,0.14,1.07,0.49c0.63-0.62,0-1.38-0.49-1.43c0.02-0.23-0.2-0.48-0.46-0.49
		c-0.26-0.02-0.52-0.03-0.81-0.02c-0.3,0.02-0.46,0.44-0.81,0.44c-1.07,0-3.19-1.94-3.19-2.78c0-0.84,2.03-1.35,2.03-2.65
		c0-1.7-1.67-2.28-3.08-3.37c0.5-0.56,1.97-0.7,2.8-0.29c0.09-0.47,0.4-0.36,0.51-1.17c0.3,0.72-0.01,1.34,0.29,1.64
		c0.24-0.35,0.84-0.3,0.81-1.19c0.18,0.56-0.23,1.41,0.18,1.78c0.08-0.46,0.35-0.54,0.52-0.54c0.17,0,0.32,0.12,0.32,0.4
		c0,0.68-0.84,0.36-0.84,1.13c0,0.32,0.41,0.43,0.41,0.64c0,0.21-0.33,0.53-0.74,0.26c0.13,0.3,0.4,0.56,0.75,0.56
		c0.37,0,0.77-0.3,0.92-0.68c0.19,0.49,0.05,1.03-0.3,1.1c0.37,0.18,1.25,0.01,1.15-1.12c0.5,0.08,0.75,0.42,0.46,1.02
		c0.41-0.1,0.78-0.3,0.78-0.73C34.49,26.17,34.13,26.07,34.29,25.64"/>
	<path d="M67,33.79c0-0.59,0.48-1.06,1.06-1.06c0.59,0,1.06,0.48,1.06,1.06c0,0.58-0.47,1.06-1.06,1.06
		C67.48,34.86,67,34.38,67,33.79 M66.64,33.79c0,0.79,0.64,1.43,1.43,1.43c0.78,0,1.43-0.64,1.43-1.43c0-0.79-0.64-1.43-1.43-1.43
		C67.28,32.37,66.64,33.01,66.64,33.79"/>
	<path d="M61.96,36.38c-0.41-0.07-0.69-0.38-0.64-0.68c0.03-0.15,0.12-0.24,0.2-0.3c0.17-0.11,0.4-0.16,0.63-0.11
		c0.37,0.07,0.65,0.34,0.65,0.61c0,0.02,0,0.05,0,0.07C62.74,36.27,62.37,36.45,61.96,36.38 M61.32,35.11
		c-0.19,0.13-0.32,0.32-0.35,0.53c-0.05,0.25,0.03,0.5,0.22,0.71c0.18,0.2,0.43,0.33,0.71,0.39c0.29,0.05,0.57,0.01,0.8-0.11
		c0.25-0.13,0.41-0.34,0.45-0.59c0.09-0.5-0.33-0.99-0.93-1.1C61.89,34.88,61.56,34.94,61.32,35.11"/>
	<path d="M53.38,15.92c0-0.18,0.11-0.4,0.3-0.55c0.16-0.13,0.37-0.19,0.54-0.17c0.08,0.01,0.19,0.04,0.27,0.14
		c0.08,0.1,0.08,0.22,0.07,0.3c-0.02,0.17-0.13,0.35-0.3,0.48c-0.28,0.22-0.65,0.23-0.81,0.02C53.4,16.09,53.38,16.01,53.38,15.92
		 M53.46,15.09c-0.44,0.34-0.57,0.92-0.29,1.29h0c0.28,0.37,0.88,0.38,1.32,0.04c0.24-0.19,0.4-0.45,0.43-0.72
		c0.03-0.21-0.03-0.41-0.15-0.56c-0.12-0.15-0.3-0.25-0.51-0.28C54,14.81,53.7,14.9,53.46,15.09"/>
	<path d="M60.19,34.73L60.19,34.73L60.19,34.73z M60.19,34.36L60.19,34.36c-0.15,0-0.26-0.08-0.32-0.15
		c-0.14-0.15-0.22-0.37-0.22-0.61c0-0.24,0.09-0.46,0.24-0.6c0.07-0.07,0.18-0.15,0.33-0.14c0.3,0.01,0.54,0.35,0.53,0.76
		c0,0.24-0.09,0.46-0.24,0.6C60.45,34.29,60.34,34.36,60.19,34.36 M59.64,32.74c-0.21,0.21-0.34,0.52-0.35,0.85v0.03
		c0,0.33,0.12,0.63,0.32,0.84c0.16,0.17,0.36,0.26,0.58,0.26c0.21,0,0.42-0.08,0.59-0.24c0.21-0.21,0.34-0.52,0.35-0.86
		c0-0.29-0.08-0.56-0.24-0.78c-0.17-0.22-0.4-0.35-0.65-0.36C60.02,32.49,59.81,32.58,59.64,32.74"/>
	<path d="M52.94,22.6c-0.37-0.18-0.57-0.55-0.43-0.82c0.06-0.13,0.18-0.2,0.27-0.23c0.19-0.07,0.42-0.05,0.64,0.06
		c0.21,0.1,0.38,0.28,0.45,0.46c0.03,0.09,0.06,0.22-0.01,0.36c-0.06,0.13-0.18,0.2-0.27,0.23C53.4,22.73,53.16,22.71,52.94,22.6
		 M52.66,21.21c-0.22,0.08-0.39,0.23-0.48,0.42c-0.22,0.46,0.05,1.04,0.61,1.31c0.3,0.15,0.64,0.17,0.92,0.07
		c0.22-0.08,0.39-0.22,0.48-0.42c0.09-0.19,0.1-0.42,0.02-0.63c-0.1-0.28-0.33-0.53-0.63-0.67C53.28,21.14,52.94,21.11,52.66,21.21"
		/>
	<path d="M63,27.71c-0.23,0.33-0.63,0.45-0.89,0.26c-0.26-0.18-0.28-0.6-0.05-0.93c0.24-0.33,0.63-0.45,0.89-0.26
		C63.21,26.96,63.23,27.38,63,27.71 M61.32,30.36c-0.24,0.33-0.63,0.45-0.89,0.27c-0.26-0.18-0.28-0.6-0.05-0.93
		c0.23-0.33,0.63-0.45,0.89-0.27C61.53,29.62,61.55,30.03,61.32,30.36 M55.55,15.83c0.2-0.62,0.57-1.85,0.57-1.85l0.65,0.25
		c-0.19,0.07-0.42,0.25-0.62,0.44c0.14,0.07,0.41,0.08,0.59-0.04l-0.26,0.65c-0.06-0.1-0.24-0.34-0.42-0.38
		c-0.13,0.52,0.19,0.72,0.43,0.84c0.4,0.2,0.65,0.23,0.76,0.05c0.12-0.23-0.13-0.54-0.47-0.4c-0.04-0.34,0.16-0.52,0.38-0.52
		c0.18,0,0.32,0.16,0.37,0.38c-0.02-0.55,0.23-0.98,0.73-1.14c0.19,0.54,0.03,0.9-0.37,1.29c0.21-0.09,0.45-0.07,0.55,0.08
		c0.12,0.19,0.08,0.45-0.22,0.61c-0.07-0.36-0.48-0.38-0.6-0.16c-0.12,0.23,0.06,0.44,0.42,0.65c0.42,0.23,0.76,0.1,0.99-0.27
		c-0.14-0.05-0.38-0.02-0.61,0.12l0.43-0.81c0.02,0.12,0.09,0.32,0.27,0.47c0.06-0.18,0.16-0.5,0.02-0.78l0.93,0.54
		c-0.31,0.03-0.54,0.27-0.66,0.42c0.22,0.08,0.43,0.04,0.55,0l-0.48,0.78c0.01-0.27-0.08-0.49-0.2-0.59
		c-0.21,0.38-0.16,0.74,0.26,0.99c0.36,0.22,0.63,0.26,0.77,0.05c0.14-0.22-0.09-0.56-0.43-0.44c-0.01-0.34,0.19-0.51,0.41-0.5
		c0.18,0.01,0.31,0.22,0.35,0.44c0.13-0.54,0.37-0.86,0.93-0.96c0.12,0.52-0.13,0.95-0.62,1.21c0.22-0.07,0.43-0.03,0.52,0.13
		c0.11,0.2,0.05,0.45-0.26,0.59c-0.04-0.36-0.45-0.43-0.58-0.21c-0.1,0.19,0.05,0.39,0.43,0.63c0.23,0.15,0.56,0.33,0.95-0.04
		c-0.13-0.14-0.42-0.18-0.54-0.18l0.43-0.55c-0.02,0.21,0.13,0.44,0.26,0.53c0.06-0.27,0.1-0.56,0.07-0.76l0.54,0.43
		c0,0-0.88,0.94-1.31,1.42L55.55,15.83z M62.54,23.76c0-0.09,0.03-0.23,0.14-0.32c0.11-0.1,0.24-0.12,0.33-0.12
		c0.2,0.01,0.42,0.11,0.58,0.28c0.16,0.17,0.25,0.4,0.25,0.6c0,0.09-0.03,0.22-0.14,0.32l0,0c-0.11,0.1-0.24,0.12-0.33,0.11
		c-0.2,0-0.42-0.11-0.58-0.28C62.62,24.18,62.53,23.96,62.54,23.76 M65.09,35.51c0.04-0.2,0.18-0.39,0.38-0.52
		c0.2-0.13,0.43-0.18,0.63-0.14c0.09,0.02,0.22,0.07,0.3,0.19v0c0.08,0.12,0.08,0.25,0.06,0.35c-0.04,0.2-0.18,0.39-0.38,0.52
		c-0.35,0.23-0.76,0.2-0.93-0.05C65.07,35.73,65.08,35.6,65.09,35.51 M52.93,17.8c-0.01,0.2-0.09,0.39-0.22,0.5
		c-0.06,0.05-0.15,0.11-0.27,0.11c-0.24-0.01-0.43-0.29-0.43-0.61c0-0.02,0-0.03,0-0.05c0.01-0.2,0.09-0.39,0.22-0.5
		c0.06-0.05,0.15-0.11,0.28-0.11c0.12,0.01,0.21,0.08,0.26,0.14C52.88,17.4,52.94,17.6,52.93,17.8 M56.69,10.07
		c0.2-0.38,0-0.96,0.7-0.96c0.34,0,0.65,0.34,1.06,0.48C57.78,9.64,57.18,9.79,56.69,10.07 M67.65,19.74
		c0.46,1.27,1.39,1.73,2.09,1.4c-1.58-0.18-0.3-2.88-2.33-2.88c-0.12,0-0.23,0.01-0.33,0.04c-0.34-0.36-0.74-0.52-1.32-0.52
		c-0.86,0-2.33,0.83-2.33,2.54c0,3.68,4.27,4.01,4.27,7.26c0,0.95-0.72,1.54-1.52,1.54c-0.72,0-1.3-0.81-1.9-2.07
		c-0.29-0.6-0.91-1.42-1.57-2.28c0.2,0.14,0.41,0.22,0.63,0.22c0.23,0.01,0.44-0.07,0.59-0.22c0.15-0.14,0.24-0.35,0.25-0.58v-0.03
		c0-0.29-0.12-0.59-0.35-0.83c-0.23-0.24-0.54-0.39-0.84-0.4c-0.23-0.01-0.44,0.07-0.59,0.22c-0.15,0.14-0.24,0.35-0.25,0.58v0.03
		c0,0.13,0.02,0.25,0.07,0.38c-0.92-1.2-1.78-2.38-1.78-3.03c0-0.57,0.39-1.07,0.88-1.67c0.02,0.01,0.17,0.09,0.17,0.09l0.13-0.14
		c0.17-0.19,0.53-0.58,1.27-1.37l0.04-0.05l0,0l0.18-0.19l-0.46-0.37c0.12-0.28,0.23-0.58,0.31-0.9c0.14,0.59,0.44,0.97,0.86,0.85
		c-0.28-0.61,0.28-1.43-0.09-2.93c0.35,0.58,0.85,0.88,1.21,0.78c-0.95-0.84,0.28-2.01-0.95-3.83c0.41,0.14,0.67,0.06,0.85-0.14
		c-1.12-0.16-0.61-1.59-2.59-2.11c0.49-0.09,0.78-0.37,0.71-0.63c-0.52,0.38-0.98-0.7-2.69-0.67c-0.1-0.64-0.7-1.31-1.37-1.64
		c0.13,0.5,0.01,0.94-0.12,1.31l-5.58-5.48c-0.16-0.15-0.25-0.19-0.3-0.13c-0.05,0.06-0.04,0.16,0.06,0.27l4.79,6
		c-0.36,0.12-0.71,0.28-1.09,0.41c-0.23,0.08-0.42,0.32-0.42,0.62c-0.89,0.44-1.67,0.99-2.06,1.34c-0.3,0.27-0.53,0.33-0.27,0.94
		c0.1,0.23-0.21,0.8,0.49,0.38c0.46-0.27,1.49-0.84,1.64-0.48c0.08,0.19-0.43,0.43-0.78,0.56c-0.35,0.14-0.73,0.41-0.67,0.54
		c0.05,0.13,0.33-0.01,0.35,0.13c0.02,0.16,0.13,0.3,0.27,0.3c0.14,0,0.32-0.29,0.43-0.19c0.11,0.1-0.06,0.75-0.17,0.92
		c0.54-0.07,0.89-0.58,0.91-0.99c0.01-0.4,0.12-0.5,0.21-0.56c0.08-0.06,0.18,0.43,0.07,0.72c0.29-0.06,0.58-0.44,0.54-1.13
		c0.14-0.11,0.29-0.2,0.4-0.2c0.18,0,0.54,0.5,1.06,0.5c0.95,0,1.48-0.77,1.53-1.13c0.04-0.29,0.02-0.58-0.13-0.79
		c0.34,0.27,0.45,0.7,0.45,1.02c0,1.34-2.37,1.98-3.35,2.9c-0.04,0.03-0.07,0.07-0.11,0.1l-1.12-0.43l-0.07,0.25
		c0,0.01-0.02,0.06-0.07,0.21c-0.12,0.38-0.36,1.18-0.51,1.63c0,0-0.06,0.18-0.06,0.18l0.1,0.06c-0.66,0.88-1.19,1.86-1.31,2.87
		c-0.27-0.28-0.52-0.5-0.81-0.74c0.03-0.1,0.05-0.2,0.06-0.31c0.02-0.3-0.08-0.58-0.25-0.79c-0.14-0.16-0.32-0.25-0.51-0.26
		c-0.19-0.01-0.39,0.06-0.54,0.2c-0.03,0.03-0.07,0.06-0.1,0.1c-0.04-0.03-0.08-0.06-0.12-0.09c-0.37-0.28-0.82-0.62-1.1-0.92
		c-0.12-0.13-0.23-0.2-0.48-0.2c-0.1,0-0.33-0.01-0.5-0.01c-0.16,0-0.26,0.13-0.45,0.29c-0.09,0.08-0.34,0.28-0.63,0.5
		c0.14,0.14,0.27,0.28,0.4,0.43c0.07,0.08,0.14,0.16,0.21,0.25c0.08-0.06,0.14-0.11,0.19-0.15c0.12-0.09,0.27-0.12,0.41-0.12
		c0.14,0,0.34,0.11,0.48,0.32c0.1,0.15,1,1.34,1.75,2.16c-0.08,0.03-0.16,0.06-0.24,0.09c-0.32,0.13-1.04,0.11-1.36,0.08
		c-0.32-0.03-0.38-0.11-0.6,0.23c-0.08,0.13-0.19,0.28-0.3,0.41c-0.11,0.13-0.19,0.28,0.04,0.66c0.33,0.56,1.15,2.02,1.42,2.68
		c0.27,0.66,0.59,0.77,1.11,0.98c0.52,0.21,1.41,0.72,1.51,0.84l0.03-0.51c-0.15-0.15-0.65-0.34-0.84-0.41
		c-0.19-0.07-0.24-0.15-0.01-0.15c0.22,0,0.85,0.22,1.29,0.4c-0.13-0.5-0.6-1.04-0.89-1.35c-0.38-0.11-0.76-0.11-0.91,0.01
		c0.02,0.1-0.06,0.24-0.21,0.24c-0.15,0-0.24-0.13-0.2-0.26c0.05-0.15,0.27-0.2,0.22-0.48c-0.05-0.28-0.4-0.33-0.63-0.36
		c-0.32-0.46-0.69-1.13-0.85-1.41c-0.16-0.27-0.07-0.43,0.05-0.52c0.27-0.22,0.84,0.12,1.97,0.19c0.39,0.02,0.89,0.05,1.4,0.07
		c0.15,1.32,0.68,2.57,2.51,3.02c0.9,0.22,1.82,0.88,2.13,1.74c-3.66-0.06-4.23,1.36-4.23,2.71c0,1.53,1.29,1.44,1.29,2.59
		c0,1-3.08,1.41-4.01,1.55c-0.79,0.12-1.24,0.29-1.62,0.67c-0.38,0.38-0.76,0.74-1.45,1.43c0,0,0.29,0.07,0.59,0.05l0.52-0.67
		c0.15-0.22,0.26-0.41,0.36-0.4c0.1,0.02,0.03,0.19-0.09,0.43l-0.43,0.72c1.81,0.12,1.92-0.55,1.92-0.82c0-0.27-0.45-0.46-0.19-0.63
		c0.26-0.17,0.48-0.05,0.69,0.19c0.21,0.24,0.27,0.45,0.77,0.26c0,0,3.94-1.63,4.43-1.86c0.45-0.2,0.32-0.4,0.05-0.62
		c-0.29-0.24-0.34-0.64-0.34-1.05c0-1.19,0.72-1.56,2-1.53c-0.03,0.2-0.04,0.4-0.04,0.57c0,1.86,2.81,3.68,3.57,3.68
		c0.34,0,0.79-0.25,0.82,0.87c0.02,0.83,0.19,1.41,0.04,2.36c-0.15,0.95-0.42,1.1-0.99,1.5c-0.57,0.4-1.11,1.66-1.35,1.93
		c0.25,0.17,0.53,0.19,0.74-0.43c0.17-0.51,0.38-0.87,0.6-0.99c-0.22,0.56-0.39,1.38-0.49,1.63c0.72,0.13,1.88-0.53,1.88-1.04
		c0-0.51-0.4-0.47-0.4-0.8c0-0.15,0.18-0.32,0.4-0.32c0.29,0,0.51,0.23,0.53,0.34c0.32-0.17,0.52-0.49,0.51-1.23
		c-0.01-0.29-0.02-0.59-0.03-0.9c0.02,0.04,0.04,0.08,0.06,0.12c0.14,0.21,0.37,0.34,0.65,0.36c0.26,0.02,0.54-0.05,0.78-0.21
		c0.28-0.19,0.48-0.46,0.54-0.75c0.01-0.06,0.02-0.12,0.02-0.18c0-0.16-0.04-0.31-0.13-0.44c-0.12-0.18-0.3-0.3-0.53-0.35
		c-0.3-0.06-0.63,0.01-0.91,0.19c-0.26,0.17-0.45,0.42-0.52,0.69c-0.06-1.01-0.13-1.97-0.1-2.35c0.04-0.57,0.06-0.82-0.13-0.91
		c-0.19-0.08-0.4,0.23-0.67,0.23c-0.28,0-1.1-0.76-1.1-1.56c0-0.8,0.87-1.84,0.82-2.94c-0.01-0.34,0.2-0.52,0.34-0.21
		c0.17,0.38,0.41,0.88,0.79,1.3c-0.23,1.38,1.29,2.73,2.54,1.73c-0.62,0.09-1.04-0.46-1.32-1.01c0.11,0.02,0.22,0.03,0.34,0.03
		c0.06,0,0.13,0,0.19-0.01c0.44,0.54,1.83,0.5,2.2-0.85c-0.24,0.28-0.75,0.5-1.11,0.45c0.53-0.41,0.8-1.08,0.8-1.79
		c0-3.51-4.25-3.92-4.25-7.11c0-1.18,1.04-1.94,1.75-1.94c0.28,0,0.49,0.09,0.66,0.21c-0.27,0.28-0.42,0.7-0.4,1.22
		c0.11,2.52,4.23,2.4,4.28,3.61C70.83,21.64,67.76,22.2,67.65,19.74"/>
</g>
</svg>
